<?xml version="1.0" encoding="utf-8" standalone="no"?>
<!DOCTYPE svg PUBLIC "-//W3C//DTD SVG 1.1//EN"
  "http://www.w3.org/Graphics/SVG/1.1/DTD/svg11.dtd">
<svg xmlns:xlink="http://www.w3.org/1999/xlink" width="604.8pt" height="230.4pt" viewBox="0 0 604.8 230.4" xmlns="http://www.w3.org/2000/svg" version="1.1">
 <metadata>
  <rdf:RDF xmlns:dc="http://purl.org/dc/elements/1.1/" xmlns:cc="http://creativecommons.org/ns#" xmlns:rdf="http://www.w3.org/1999/02/22-rdf-syntax-ns#">
   <cc:Work>
    <dc:type rdf:resource="http://purl.org/dc/dcmitype/StillImage"/>
    <dc:date>2026-09-24T23:40:15.915422</dc:date>
    <dc:format>image/svg+xml</dc:format>
    <dc:creator>
     <cc:Agent>
      <dc:title>Matplotlib v3.11.2, https://matplotlib.org/</dc:title>
     </cc:Agent>
    </dc:creator>
   </cc:Work>
  </rdf:RDF>
 </metadata>
 <defs>
  <style type="text/css">*{stroke-linejoin: round; stroke-linecap: butt}</style>
 </defs>
 <g id="figure_1">
  <g id="patch_1">
   <path d="M 0 230.4 
L 604.8 230.4 
L 604.8 0 
L 0 0 
L 0 230.4 
z
" style="fill: none"/>
  </g>
  <g id="axes_1">
   <g id="patch_2">
    <path d="M 80.324306 188.277656 
L 270.375601 188.277656 
L 270.375601 10.8 
L 80.324306 10.8 
L 80.324306 188.277656 
z
" style="fill: none"/>
   </g>
   <g id="matplotlib.axis_1">
    <g id="xtick_1">
     <g id="line2d_1">
      <defs>
       <path id="mcd1b3ee865" d="M 0 0 
L 0 3.5 
" style="stroke: #7d8996; stroke-width: 0.8"/>
      </defs>
      <g>
       <use xlink:href="#mcd1b3ee865" x="106.31522" y="188.277656" style="fill: #7d8996; stroke: #7d8996; stroke-width: 0.8"/>
      </g>
     </g>
     <g id="text_1">
      <!-- −100 -->
      <g style="fill: #7d8996" transform="translate(92.581626 202.875313) scale(0.1 -0.1)">
       <defs>
        <path id="DejaVuSans-c9c" d="M 678 2272 
L 4684 2272 
L 4684 1741 
L 678 1741 
L 678 2272 
z
" transform="scale(0.015625)"/>
        <path id="DejaVuSans-14" d="M 794 531 
L 1825 531 
L 1825 4091 
L 703 3866 
L 703 4441 
L 1819 4666 
L 2450 4666 
L 2450 531 
L 3481 531 
L 3481 0 
L 794 0 
L 794 531 
z
" transform="scale(0.015625)"/>
        <path id="DejaVuSans-13" d="M 2034 4250 
Q 1547 4250 1301 3770 
Q 1056 3291 1056 2328 
Q 1056 1369 1301 889 
Q 1547 409 2034 409 
Q 2525 409 2770 889 
Q 3016 1369 3016 2328 
Q 3016 3291 2770 3770 
Q 2525 4250 2034 4250 
z
M 2034 4750 
Q 2819 4750 3233 4129 
Q 3647 3509 3647 2328 
Q 3647 1150 3233 529 
Q 2819 -91 2034 -91 
Q 1250 -91 836 529 
Q 422 1150 422 2328 
Q 422 3509 836 4129 
Q 1250 4750 2034 4750 
z
" transform="scale(0.015625)"/>
       </defs>
       <use xlink:href="#DejaVuSans-c9c"/>
       <use xlink:href="#DejaVuSans-14" transform="translate(83.796875 0)"/>
       <use xlink:href="#DejaVuSans-13" transform="translate(147.421875 0)"/>
       <use xlink:href="#DejaVuSans-13" transform="translate(211.046875 0)"/>
      </g>
     </g>
    </g>
    <g id="xtick_2">
     <g id="line2d_2">
      <g>
       <use xlink:href="#mcd1b3ee865" x="169.635166" y="188.277656" style="fill: #7d8996; stroke: #7d8996; stroke-width: 0.8"/>
      </g>
     </g>
     <g id="text_2">
      <!-- 0 -->
      <g style="fill: #7d8996" transform="translate(166.453916 202.875313) scale(0.1 -0.1)">
       <use xlink:href="#DejaVuSans-13"/>
      </g>
     </g>
    </g>
    <g id="xtick_3">
     <g id="line2d_3">
      <g>
       <use xlink:href="#mcd1b3ee865" x="232.955112" y="188.277656" style="fill: #7d8996; stroke: #7d8996; stroke-width: 0.8"/>
      </g>
     </g>
     <g id="text_3">
      <!-- 100 -->
      <g style="fill: #7d8996" transform="translate(223.411362 202.875313) scale(0.1 -0.1)">
       <use xlink:href="#DejaVuSans-14"/>
       <use xlink:href="#DejaVuSans-13" transform="translate(63.625 0)"/>
       <use xlink:href="#DejaVuSans-13" transform="translate(127.25 0)"/>
      </g>
     </g>
    </g>
    <g id="text_4">
     <!-- $k_x$ [1/m] -->
     <g style="fill: #7d8996" transform="translate(154.999954 216.877656) scale(0.1 -0.1)">
      <defs>
       <path id="DejaVuSans-Oblique-4e" d="M 1172 4863 
L 1747 4863 
L 1197 2028 
L 3169 3500 
L 3916 3500 
L 1716 1825 
L 3322 0 
L 2625 0 
L 1131 1709 
L 800 0 
L 225 0 
L 1172 4863 
z
" transform="scale(0.015625)"/>
       <path id="DejaVuSans-Oblique-5b" d="M 3841 3500 
L 2234 1784 
L 3219 0 
L 2559 0 
L 1819 1388 
L 531 0 
L -166 0 
L 1556 1844 
L 641 3500 
L 1300 3500 
L 1972 2234 
L 3144 3500 
L 3841 3500 
z
" transform="scale(0.015625)"/>
       <path id="DejaVuSans-3" transform="scale(0.015625)"/>
       <path id="DejaVuSans-3e" d="M 550 4863 
L 1875 4863 
L 1875 4416 
L 1125 4416 
L 1125 -397 
L 1875 -397 
L 1875 -844 
L 550 -844 
L 550 4863 
z
" transform="scale(0.015625)"/>
       <path id="DejaVuSans-12" d="M 1625 4666 
L 2156 4666 
L 531 -594 
L 0 -594 
L 1625 4666 
z
" transform="scale(0.015625)"/>
       <path id="DejaVuSans-50" d="M 3328 2828 
Q 3544 3216 3844 3400 
Q 4144 3584 4550 3584 
Q 5097 3584 5394 3201 
Q 5691 2819 5691 2113 
L 5691 0 
L 5113 0 
L 5113 2094 
Q 5113 2597 4934 2840 
Q 4756 3084 4391 3084 
Q 3944 3084 3684 2787 
Q 3425 2491 3425 1978 
L 3425 0 
L 2847 0 
L 2847 2094 
Q 2847 2600 2669 2842 
Q 2491 3084 2119 3084 
Q 1678 3084 1418 2786 
Q 1159 2488 1159 1978 
L 1159 0 
L 581 0 
L 581 3500 
L 1159 3500 
L 1159 2956 
Q 1356 3278 1631 3431 
Q 1906 3584 2284 3584 
Q 2666 3584 2933 3390 
Q 3200 3197 3328 2828 
z
" transform="scale(0.015625)"/>
       <path id="DejaVuSans-40" d="M 1947 4863 
L 1947 -844 
L 622 -844 
L 622 -397 
L 1369 -397 
L 1369 4416 
L 622 4416 
L 622 4863 
L 1947 4863 
z
" transform="scale(0.015625)"/>
      </defs>
      <use xlink:href="#DejaVuSans-Oblique-4e" transform="translate(0 0.015625)"/>
      <use xlink:href="#DejaVuSans-Oblique-5b" transform="translate(57.910156 -14.984326) scale(0.7)"/>
      <use xlink:href="#DejaVuSans-3" transform="translate(102.070312 0.015625)"/>
      <use xlink:href="#DejaVuSans-3e" transform="translate(133.857422 0.015625)"/>
      <use xlink:href="#DejaVuSans-14" transform="translate(172.871094 0.015625)"/>
      <use xlink:href="#DejaVuSans-12" transform="translate(236.494141 0.015625)"/>
      <use xlink:href="#DejaVuSans-50" transform="translate(270.185547 0.015625)"/>
      <use xlink:href="#DejaVuSans-40" transform="translate(367.597656 0.015625)"/>
     </g>
    </g>
   </g>
   <g id="matplotlib.axis_2">
    <g id="ytick_1">
     <g id="line2d_4">
      <defs>
       <path id="m9abfa496cd" d="M 0 0 
L -3.5 0 
" style="stroke: #7d8996; stroke-width: 0.8"/>
      </defs>
      <g>
       <use xlink:href="#m9abfa496cd" x="80.324306" y="157.108618" style="fill: #7d8996; stroke: #7d8996; stroke-width: 0.8"/>
      </g>
     </g>
     <g id="text_5">
      <!-- −100 -->
      <g style="fill: #7d8996" transform="translate(45.857119 160.907446) scale(0.1 -0.1)">
       <use xlink:href="#DejaVuSans-c9c"/>
       <use xlink:href="#DejaVuSans-14" transform="translate(83.796875 0)"/>
       <use xlink:href="#DejaVuSans-13" transform="translate(147.421875 0)"/>
       <use xlink:href="#DejaVuSans-13" transform="translate(211.046875 0)"/>
      </g>
     </g>
    </g>
    <g id="ytick_2">
     <g id="line2d_5">
      <g>
       <use xlink:href="#m9abfa496cd" x="80.324306" y="125.448645" style="fill: #7d8996; stroke: #7d8996; stroke-width: 0.8"/>
      </g>
     </g>
     <g id="text_6">
      <!-- −50 -->
      <g style="fill: #7d8996" transform="translate(52.219619 129.247473) scale(0.1 -0.1)">
       <defs>
        <path id="DejaVuSans-18" d="M 691 4666 
L 3169 4666 
L 3169 4134 
L 1269 4134 
L 1269 2991 
Q 1406 3038 1543 3061 
Q 1681 3084 1819 3084 
Q 2600 3084 3056 2656 
Q 3513 2228 3513 1497 
Q 3513 744 3044 326 
Q 2575 -91 1722 -91 
Q 1428 -91 1123 -41 
Q 819 9 494 109 
L 494 744 
Q 775 591 1075 516 
Q 1375 441 1709 441 
Q 2250 441 2565 725 
Q 2881 1009 2881 1497 
Q 2881 1984 2565 2268 
Q 2250 2553 1709 2553 
Q 1456 2553 1204 2497 
Q 953 2441 691 2322 
L 691 4666 
z
" transform="scale(0.015625)"/>
       </defs>
       <use xlink:href="#DejaVuSans-c9c"/>
       <use xlink:href="#DejaVuSans-18" transform="translate(83.796875 0)"/>
       <use xlink:href="#DejaVuSans-13" transform="translate(147.421875 0)"/>
      </g>
     </g>
    </g>
    <g id="ytick_3">
     <g id="line2d_6">
      <g>
       <use xlink:href="#m9abfa496cd" x="80.324306" y="93.788671" style="fill: #7d8996; stroke: #7d8996; stroke-width: 0.8"/>
      </g>
     </g>
     <g id="text_7">
      <!-- 0 -->
      <g style="fill: #7d8996" transform="translate(66.961806 97.5875) scale(0.1 -0.1)">
       <use xlink:href="#DejaVuSans-13"/>
      </g>
     </g>
    </g>
    <g id="ytick_4">
     <g id="line2d_7">
      <g>
       <use xlink:href="#m9abfa496cd" x="80.324306" y="62.128698" style="fill: #7d8996; stroke: #7d8996; stroke-width: 0.8"/>
      </g>
     </g>
     <g id="text_8">
      <!-- 50 -->
      <g style="fill: #7d8996" transform="translate(60.599306 65.927527) scale(0.1 -0.1)">
       <use xlink:href="#DejaVuSans-18"/>
       <use xlink:href="#DejaVuSans-13" transform="translate(63.625 0)"/>
      </g>
     </g>
    </g>
    <g id="ytick_5">
     <g id="line2d_8">
      <g>
       <use xlink:href="#m9abfa496cd" x="80.324306" y="30.468725" style="fill: #7d8996; stroke: #7d8996; stroke-width: 0.8"/>
      </g>
     </g>
     <g id="text_9">
      <!-- 100 -->
      <g style="fill: #7d8996" transform="translate(54.236806 34.267553) scale(0.1 -0.1)">
       <use xlink:href="#DejaVuSans-14"/>
       <use xlink:href="#DejaVuSans-13" transform="translate(63.625 0)"/>
       <use xlink:href="#DejaVuSans-13" transform="translate(127.25 0)"/>
      </g>
     </g>
    </g>
    <g id="text_10">
     <!-- $k_y$ [1/m] -->
     <g style="fill: #7d8996" transform="translate(38.857119 119.888828) rotate(-90) scale(0.1 -0.1)">
      <defs>
       <path id="DejaVuSans-Oblique-5c" d="M 1588 -325 
Q 1188 -997 936 -1164 
Q 684 -1331 294 -1331 
L -159 -1331 
L -63 -850 
L 269 -850 
Q 509 -850 678 -719 
Q 847 -588 1056 -206 
L 1234 128 
L 459 3500 
L 1069 3500 
L 1650 819 
L 3256 3500 
L 3859 3500 
L 1588 -325 
z
" transform="scale(0.015625)"/>
      </defs>
      <use xlink:href="#DejaVuSans-Oblique-4e" transform="translate(0 0.015625)"/>
      <use xlink:href="#DejaVuSans-Oblique-5c" transform="translate(57.910156 -14.984326) scale(0.7)"/>
      <use xlink:href="#DejaVuSans-3" transform="translate(102.070312 0.015625)"/>
      <use xlink:href="#DejaVuSans-3e" transform="translate(133.857422 0.015625)"/>
      <use xlink:href="#DejaVuSans-14" transform="translate(172.871094 0.015625)"/>
      <use xlink:href="#DejaVuSans-12" transform="translate(236.494141 0.015625)"/>
      <use xlink:href="#DejaVuSans-50" transform="translate(270.185547 0.015625)"/>
      <use xlink:href="#DejaVuSans-40" transform="translate(367.597656 0.015625)"/>
     </g>
    </g>
   </g>
   <g id="line2d_9">
    <path d="M 169.635166 93.788671 
L 170.256087 93.680824 
L 170.821778 93.363645 
L 171.279727 92.855944 
L 171.582749 92.188141 
L 171.691365 91.400914 
L 171.575875 90.543382 
L 171.21801 89.670891 
L 170.612116 88.842493 
L 169.765792 88.118221 
L 168.864528 87.624516 
L 167.822527 87.284191 
L 166.666988 87.12754 
L 165.430887 87.179949 
L 164.152092 87.460867 
L 162.8723 87.982942 
L 161.635832 88.751337 
L 160.488309 89.76326 
L 159.475259 91.007726 
L 158.765593 92.208824 
L 158.203867 93.542898 
L 157.812044 94.990965 
L 157.609559 96.530663 
L 157.612827 98.136591 
L 157.834794 99.780735 
L 158.284542 101.432936 
L 158.966969 103.061435 
L 159.882537 104.63345 
L 161.027106 106.115796 
L 162.391847 107.475526 
L 163.96325 108.680591 
L 165.72322 109.700494 
L 167.64927 110.506938 
L 169.714792 111.074445 
L 171.447344 111.341454 
L 173.232702 111.431833 
L 175.052586 111.337848 
L 176.887717 111.053681 
L 178.718016 110.57555 
L 180.522823 109.901807 
L 182.281122 109.033019 
L 183.971783 107.972016 
L 185.573804 106.723917 
L 187.066558 105.296131 
L 188.430041 103.698331 
L 189.645124 101.942401 
L 190.69379 100.042351 
L 191.55937 98.014215 
L 192.226769 95.875918 
L 192.682674 93.647114 
L 192.915751 91.349011 
L 192.916821 89.00417 
L 192.679012 86.636277 
L 192.197897 84.26991 
L 191.471598 81.930285 
L 190.500868 79.642987 
L 189.289144 77.433694 
L 187.84257 75.327899 
L 186.169994 73.350616 
L 184.28293 71.526102 
L 182.195491 69.877566 
L 179.924292 68.426895 
L 177.488329 67.194384 
L 174.908815 66.198478 
L 172.209005 65.455533 
L 169.413983 64.979592 
L 166.550432 64.782183 
L 163.646377 64.872141 
L 160.730914 65.255456 
L 158.554778 65.73739 
L 156.40181 66.386248 
L 154.284876 67.201189 
L 152.216841 68.180381 
L 150.210491 69.320989 
L 148.278458 70.619182 
L 146.433137 72.070136 
L 144.686613 73.668055 
L 143.05058 75.406186 
L 141.53627 77.276845 
L 140.154376 79.271452 
L 138.91498 81.380569 
L 137.827488 83.59394 
L 136.900561 85.900544 
L 136.142054 88.288649 
L 135.558958 90.745869 
L 135.157348 93.25923 
L 134.94233 95.815238 
L 134.918003 98.399952 
L 135.087416 100.99906 
L 135.45254 103.597956 
L 136.014236 106.181825 
L 136.77224 108.735725 
L 137.725149 111.244676 
L 138.870408 113.693743 
L 140.204319 116.068128 
L 141.722038 118.353258 
L 143.417595 120.534871 
L 145.283911 122.599106 
L 147.312826 124.532586 
L 149.495133 126.322507 
L 151.820614 127.956717 
L 154.278094 129.423795 
L 156.855487 130.713128 
L 159.53986 131.814983 
L 162.317492 132.720574 
L 165.17395 133.422125 
L 168.094159 133.912928 
L 171.062483 134.187396 
L 174.062809 134.241107 
L 177.078636 134.070847 
L 180.093162 133.674639 
L 183.089382 133.051774 
L 186.050179 132.202829 
L 188.958425 131.129677 
L 191.79708 129.835495 
L 194.549288 128.324756 
L 197.198479 126.603225 
L 199.728469 124.677938 
L 202.123553 122.557175 
L 204.368605 120.250428 
L 206.449172 117.768362 
L 208.351561 115.122762 
L 210.06293 112.326488 
L 211.571368 109.393401 
L 212.865978 106.338306 
L 213.936947 103.17687 
L 214.775619 99.925546 
L 215.374551 96.601486 
L 215.727574 93.222451 
L 215.829841 89.806716 
L 215.67787 86.372971 
L 215.269576 82.94022 
L 214.604303 79.527674 
L 213.682837 76.154644 
L 212.507422 72.840433 
L 211.081762 69.604226 
L 209.411013 66.464976 
L 207.501771 63.441298 
L 205.36205 60.551358 
L 203.001249 57.812762 
L 200.430117 55.242455 
L 197.6607 52.856614 
L 194.706292 50.670548 
L 191.581369 48.698606 
L 188.30152 46.954081 
L 184.883367 45.449125 
L 181.344487 44.194672 
L 177.703315 43.200358 
L 173.979056 42.474457 
L 170.191575 42.023822 
L 166.361297 41.853825 
L 162.509098 41.968321 
L 158.656184 42.369603 
L 154.823982 43.058381 
L 151.034017 44.033756 
L 147.307791 45.293214 
L 143.666664 46.832621 
L 140.131729 48.646236 
L 136.723692 50.726721 
L 133.462749 53.065174 
L 130.368472 55.651158 
L 127.459687 58.47275 
L 124.754364 61.516594 
L 122.269507 64.76796 
L 120.02105 68.210817 
L 118.023755 71.827909 
L 116.291119 75.600842 
L 114.835287 79.510179 
L 113.666973 83.535536 
L 112.795379 87.65569 
L 112.228141 91.848692 
L 111.971261 96.091982 
L 112.029065 100.362511 
L 112.404162 104.636868 
L 113.097414 108.891403 
L 114.107912 113.102366 
L 115.432974 117.246031 
L 117.068135 121.298835 
L 119.007162 125.237511 
L 121.242071 129.039218 
L 123.76316 132.681678 
L 126.559044 136.143302 
L 129.616705 139.403316 
L 132.921555 142.441891 
L 135.254227 144.335268 
L 137.684513 146.116583 
L 140.207018 147.780807 
L 142.816087 149.323169 
L 145.50582 150.739175 
L 148.270082 152.024613 
L 151.102521 153.175574 
L 153.996578 154.188456 
L 156.945507 155.059979 
L 159.942386 155.787192 
L 162.980138 156.367485 
L 166.051541 156.798596 
L 169.149254 157.078618 
L 172.265827 157.206006 
L 175.393723 157.179585 
L 178.525333 156.998551 
L 181.653001 156.662477 
L 184.769032 156.171318 
L 187.865723 155.52541 
L 190.935372 154.725472 
L 193.970304 153.772609 
L 196.962886 152.668307 
L 199.905548 151.414435 
L 202.790803 150.013241 
L 205.611262 148.467347 
L 208.359659 146.779748 
L 211.028863 144.953803 
L 213.611902 142.993231 
L 216.101979 140.902102 
L 218.492486 138.68483 
L 220.777031 136.346165 
L 222.949443 133.891177 
L 225.003797 131.325256 
L 226.934428 128.654088 
L 228.735944 125.883651 
L 230.403245 123.020201 
L 231.93153 120.070251 
L 233.31632 117.040567 
L 234.553463 113.938142 
L 235.63915 110.770188 
L 236.569923 107.544114 
L 237.34269 104.267511 
L 237.95473 100.948135 
L 238.403703 97.593886 
L 238.687661 94.212792 
L 238.805048 90.812986 
L 238.754712 87.402692 
L 238.535909 83.990199 
L 238.148303 80.583847 
L 237.591973 77.192 
L 236.867412 73.823031 
L 235.975531 70.4853 
L 234.917655 67.18713 
L 233.695526 63.936791 
L 232.311297 60.742476 
L 230.767532 57.612282 
L 229.067197 54.554188 
L 227.21366 51.576037 
L 225.210682 48.685514 
L 223.06241 45.890127 
L 220.773369 43.197188 
L 218.34845 40.613792 
L 215.792905 38.146801 
L 213.112331 35.802826 
L 210.312661 33.588207 
L 207.400147 31.508996 
L 204.381352 29.570945 
L 201.263131 27.779485 
L 198.052614 26.139715 
L 194.757196 24.656386 
L 191.384515 23.333888 
L 187.942434 22.176235 
L 184.439027 21.18706 
L 180.882554 20.369597 
L 177.28145 19.726674 
L 173.644294 19.260706 
L 169.979799 18.973682 
L 166.296785 18.867166 
L 162.604158 18.942283 
L 158.910893 19.199718 
L 155.226007 19.639713 
L 151.558538 20.262062 
L 147.917527 21.066113 
L 144.311989 22.050763 
L 140.750897 23.214461 
L 137.243157 24.555211 
L 133.797583 26.070573 
L 130.422881 27.757665 
L 127.127621 29.613175 
L 123.920219 31.633359 
L 120.808915 33.814053 
L 117.801751 36.15068 
L 114.906551 38.638262 
L 112.1309 41.271425 
L 109.482124 44.044414 
L 106.967274 46.951106 
L 104.593102 49.985023 
L 102.366049 53.139344 
L 100.292222 56.406923 
L 98.377381 59.780303 
L 96.626924 63.251736 
L 95.045869 66.813196 
L 93.638842 70.456403 
L 92.410064 74.172838 
L 91.363336 77.953765 
L 90.502034 81.790251 
L 89.829092 85.673187 
L 89.346997 89.593309 
L 89.057777 93.541221 
L 88.963001 97.507418 
L 89.063766 101.482307 
L 89.360696 105.456234 
L 89.853936 109.419501 
L 90.543152 113.362396 
L 91.42753 117.275213 
L 92.505773 121.14828 
L 93.776104 124.971975 
L 95.236268 128.73676 
L 96.883536 132.433197 
L 98.71471 136.051974 
L 100.726126 139.58393 
L 102.913664 143.020078 
L 105.272757 146.351623 
L 107.798396 149.569991 
L 110.485144 152.666848 
L 113.327146 155.634121 
L 116.318143 158.46402 
L 119.451485 161.149056 
L 122.720145 163.682065 
L 126.116733 166.056223 
L 129.633519 168.265066 
L 133.262444 170.302508 
L 136.995139 172.162855 
L 140.822949 173.840822 
L 144.736949 175.33155 
L 148.727964 176.630614 
L 152.786595 177.734043 
L 156.903238 178.638326 
L 161.068104 179.340423 
L 165.271249 179.837778 
L 169.502593 180.128324 
L 173.751945 180.21049 
L 178.009027 180.08321 
L 182.263501 179.745924 
L 186.504993 179.198583 
L 190.723117 178.441652 
L 194.907502 177.476111 
L 199.047818 176.303452 
L 203.133797 174.925679 
L 207.155268 173.345309 
L 211.10217 171.56536 
L 214.964587 169.589352 
L 218.732768 167.421299 
L 222.397154 165.065698 
L 225.948399 162.527526 
L 229.377398 159.812222 
L 232.675307 156.925684 
L 235.833566 153.874248 
L 238.843924 150.66468 
L 241.698455 147.30416 
L 244.389586 143.800263 
L 246.91011 140.160948 
L 249.253208 136.394533 
L 251.412471 132.509681 
L 253.381909 128.515378 
L 255.155974 124.420913 
L 256.729573 120.235856 
L 258.098084 115.970036 
L 259.257364 111.633518 
L 260.203769 107.236579 
L 260.934157 102.789684 
L 261.445903 98.30346 
L 261.736906 93.788671 
L 261.736906 93.788671 
" clip-path="url(#p27c1452fbf)" style="fill: none; stroke: #2a78d6; stroke-linecap: square"/>
   </g>
   <g id="patch_3">
    <path d="M 80.324306 188.277656 
L 80.324306 10.8 
" style="fill: none; stroke: #7d8996; stroke-opacity: 0.34902; stroke-width: 0.8; stroke-linejoin: miter; stroke-linecap: square"/>
   </g>
   <g id="patch_4">
    <path d="M 270.375601 188.277656 
L 270.375601 10.8 
" style="fill: none; stroke: #7d8996; stroke-opacity: 0.34902; stroke-width: 0.8; stroke-linejoin: miter; stroke-linecap: square"/>
   </g>
   <g id="patch_5">
    <path d="M 80.324306 188.277656 
L 270.375601 188.277656 
" style="fill: none; stroke: #7d8996; stroke-opacity: 0.34902; stroke-width: 0.8; stroke-linejoin: miter; stroke-linecap: square"/>
   </g>
   <g id="patch_6">
    <path d="M 80.324306 10.8 
L 270.375601 10.8 
" style="fill: none; stroke: #7d8996; stroke-opacity: 0.34902; stroke-width: 0.8; stroke-linejoin: miter; stroke-linecap: square"/>
   </g>
  </g>
  <g id="axes_2">
   <g id="patch_7">
    <path d="M 343.022251 188.277656 
L 594 188.277656 
L 594 10.8 
L 343.022251 10.8 
L 343.022251 188.277656 
z
" style="fill: none"/>
   </g>
   <g id="matplotlib.axis_3">
    <g id="xtick_4">
     <g id="line2d_10">
      <g>
       <use xlink:href="#mcd1b3ee865" x="353.539074" y="188.277656" style="fill: #7d8996; stroke: #7d8996; stroke-width: 0.8"/>
      </g>
     </g>
     <g id="text_11">
      <!-- 0.0 -->
      <g style="fill: #7d8996" transform="translate(345.587512 202.875313) scale(0.1 -0.1)">
       <defs>
        <path id="DejaVuSans-11" d="M 684 794 
L 1344 794 
L 1344 0 
L 684 0 
L 684 794 
z
" transform="scale(0.015625)"/>
       </defs>
       <use xlink:href="#DejaVuSans-13"/>
       <use xlink:href="#DejaVuSans-11" transform="translate(63.625 0)"/>
       <use xlink:href="#DejaVuSans-13" transform="translate(95.40625 0)"/>
      </g>
     </g>
    </g>
    <g id="xtick_5">
     <g id="line2d_11">
      <g>
       <use xlink:href="#mcd1b3ee865" x="398.101885" y="188.277656" style="fill: #7d8996; stroke: #7d8996; stroke-width: 0.8"/>
      </g>
     </g>
     <g id="text_12">
      <!-- 0.5 -->
      <g style="fill: #7d8996" transform="translate(390.150322 202.875313) scale(0.1 -0.1)">
       <use xlink:href="#DejaVuSans-13"/>
       <use xlink:href="#DejaVuSans-11" transform="translate(63.625 0)"/>
       <use xlink:href="#DejaVuSans-18" transform="translate(95.40625 0)"/>
      </g>
     </g>
    </g>
    <g id="xtick_6">
     <g id="line2d_12">
      <g>
       <use xlink:href="#mcd1b3ee865" x="442.664695" y="188.277656" style="fill: #7d8996; stroke: #7d8996; stroke-width: 0.8"/>
      </g>
     </g>
     <g id="text_13">
      <!-- 1.0 -->
      <g style="fill: #7d8996" transform="translate(434.713133 202.875313) scale(0.1 -0.1)">
       <use xlink:href="#DejaVuSans-14"/>
       <use xlink:href="#DejaVuSans-11" transform="translate(63.625 0)"/>
       <use xlink:href="#DejaVuSans-13" transform="translate(95.40625 0)"/>
      </g>
     </g>
    </g>
    <g id="xtick_7">
     <g id="line2d_13">
      <g>
       <use xlink:href="#mcd1b3ee865" x="487.227506" y="188.277656" style="fill: #7d8996; stroke: #7d8996; stroke-width: 0.8"/>
      </g>
     </g>
     <g id="text_14">
      <!-- 1.5 -->
      <g style="fill: #7d8996" transform="translate(479.275943 202.875313) scale(0.1 -0.1)">
       <use xlink:href="#DejaVuSans-14"/>
       <use xlink:href="#DejaVuSans-11" transform="translate(63.625 0)"/>
       <use xlink:href="#DejaVuSans-18" transform="translate(95.40625 0)"/>
      </g>
     </g>
    </g>
    <g id="xtick_8">
     <g id="line2d_14">
      <g>
       <use xlink:href="#mcd1b3ee865" x="531.790316" y="188.277656" style="fill: #7d8996; stroke: #7d8996; stroke-width: 0.8"/>
      </g>
     </g>
     <g id="text_15">
      <!-- 2.0 -->
      <g style="fill: #7d8996" transform="translate(523.838754 202.875313) scale(0.1 -0.1)">
       <defs>
        <path id="DejaVuSans-15" d="M 1228 531 
L 3431 531 
L 3431 0 
L 469 0 
L 469 531 
Q 828 903 1448 1529 
Q 2069 2156 2228 2338 
Q 2531 2678 2651 2914 
Q 2772 3150 2772 3378 
Q 2772 3750 2511 3984 
Q 2250 4219 1831 4219 
Q 1534 4219 1204 4116 
Q 875 4013 500 3803 
L 500 4441 
Q 881 4594 1212 4672 
Q 1544 4750 1819 4750 
Q 2544 4750 2975 4387 
Q 3406 4025 3406 3419 
Q 3406 3131 3298 2873 
Q 3191 2616 2906 2266 
Q 2828 2175 2409 1742 
Q 1991 1309 1228 531 
z
" transform="scale(0.015625)"/>
       </defs>
       <use xlink:href="#DejaVuSans-15"/>
       <use xlink:href="#DejaVuSans-11" transform="translate(63.625 0)"/>
       <use xlink:href="#DejaVuSans-13" transform="translate(95.40625 0)"/>
      </g>
     </g>
    </g>
    <g id="xtick_9">
     <g id="line2d_15">
      <g>
       <use xlink:href="#mcd1b3ee865" x="576.353127" y="188.277656" style="fill: #7d8996; stroke: #7d8996; stroke-width: 0.8"/>
      </g>
     </g>
     <g id="text_16">
      <!-- 2.5 -->
      <g style="fill: #7d8996" transform="translate(568.401565 202.875313) scale(0.1 -0.1)">
       <use xlink:href="#DejaVuSans-15"/>
       <use xlink:href="#DejaVuSans-11" transform="translate(63.625 0)"/>
       <use xlink:href="#DejaVuSans-18" transform="translate(95.40625 0)"/>
      </g>
     </g>
    </g>
    <g id="text_17">
     <!-- time [ms] -->
     <g style="fill: #7d8996" transform="translate(444.249407 216.876094) scale(0.1 -0.1)">
      <defs>
       <path id="DejaVuSans-57" d="M 1172 4494 
L 1172 3500 
L 2356 3500 
L 2356 3053 
L 1172 3053 
L 1172 1153 
Q 1172 725 1289 603 
Q 1406 481 1766 481 
L 2356 481 
L 2356 0 
L 1766 0 
Q 1100 0 847 248 
Q 594 497 594 1153 
L 594 3053 
L 172 3053 
L 172 3500 
L 594 3500 
L 594 4494 
L 1172 4494 
z
" transform="scale(0.015625)"/>
       <path id="DejaVuSans-4c" d="M 603 3500 
L 1178 3500 
L 1178 0 
L 603 0 
L 603 3500 
z
M 603 4863 
L 1178 4863 
L 1178 4134 
L 603 4134 
L 603 4863 
z
" transform="scale(0.015625)"/>
       <path id="DejaVuSans-48" d="M 3597 1894 
L 3597 1613 
L 953 1613 
Q 991 1019 1311 708 
Q 1631 397 2203 397 
Q 2534 397 2845 478 
Q 3156 559 3463 722 
L 3463 178 
Q 3153 47 2828 -22 
Q 2503 -91 2169 -91 
Q 1331 -91 842 396 
Q 353 884 353 1716 
Q 353 2575 817 3079 
Q 1281 3584 2069 3584 
Q 2775 3584 3186 3129 
Q 3597 2675 3597 1894 
z
M 3022 2063 
Q 3016 2534 2758 2815 
Q 2500 3097 2075 3097 
Q 1594 3097 1305 2825 
Q 1016 2553 972 2059 
L 3022 2063 
z
" transform="scale(0.015625)"/>
       <path id="DejaVuSans-56" d="M 2834 3397 
L 2834 2853 
Q 2591 2978 2328 3040 
Q 2066 3103 1784 3103 
Q 1356 3103 1142 2972 
Q 928 2841 928 2578 
Q 928 2378 1081 2264 
Q 1234 2150 1697 2047 
L 1894 2003 
Q 2506 1872 2764 1633 
Q 3022 1394 3022 966 
Q 3022 478 2636 193 
Q 2250 -91 1575 -91 
Q 1294 -91 989 -36 
Q 684 19 347 128 
L 347 722 
Q 666 556 975 473 
Q 1284 391 1588 391 
Q 1994 391 2212 530 
Q 2431 669 2431 922 
Q 2431 1156 2273 1281 
Q 2116 1406 1581 1522 
L 1381 1569 
Q 847 1681 609 1914 
Q 372 2147 372 2553 
Q 372 3047 722 3315 
Q 1072 3584 1716 3584 
Q 2034 3584 2315 3537 
Q 2597 3491 2834 3397 
z
" transform="scale(0.015625)"/>
      </defs>
      <use xlink:href="#DejaVuSans-57"/>
      <use xlink:href="#DejaVuSans-4c" transform="translate(39.203125 0)"/>
      <use xlink:href="#DejaVuSans-50" transform="translate(66.984375 0)"/>
      <use xlink:href="#DejaVuSans-48" transform="translate(164.390625 0)"/>
      <use xlink:href="#DejaVuSans-3" transform="translate(225.921875 0)"/>
      <use xlink:href="#DejaVuSans-3e" transform="translate(257.703125 0)"/>
      <use xlink:href="#DejaVuSans-50" transform="translate(296.71875 0)"/>
      <use xlink:href="#DejaVuSans-56" transform="translate(394.125 0)"/>
      <use xlink:href="#DejaVuSans-40" transform="translate(446.21875 0)"/>
     </g>
    </g>
   </g>
   <g id="matplotlib.axis_4">
    <g id="ytick_6">
     <g id="line2d_16">
      <g>
       <use xlink:href="#m9abfa496cd" x="343.022251" y="175.159174" style="fill: #7d8996; stroke: #7d8996; stroke-width: 0.8"/>
      </g>
     </g>
     <g id="text_18">
      <!-- −20 -->
      <g style="fill: #7d8996" transform="translate(314.917563 178.958002) scale(0.1 -0.1)">
       <use xlink:href="#DejaVuSans-c9c"/>
       <use xlink:href="#DejaVuSans-15" transform="translate(83.796875 0)"/>
       <use xlink:href="#DejaVuSans-13" transform="translate(147.421875 0)"/>
      </g>
     </g>
    </g>
    <g id="ytick_7">
     <g id="line2d_17">
      <g>
       <use xlink:href="#m9abfa496cd" x="343.022251" y="138.019593" style="fill: #7d8996; stroke: #7d8996; stroke-width: 0.8"/>
      </g>
     </g>
     <g id="text_19">
      <!-- −10 -->
      <g style="fill: #7d8996" transform="translate(314.917563 141.818421) scale(0.1 -0.1)">
       <use xlink:href="#DejaVuSans-c9c"/>
       <use xlink:href="#DejaVuSans-14" transform="translate(83.796875 0)"/>
       <use xlink:href="#DejaVuSans-13" transform="translate(147.421875 0)"/>
      </g>
     </g>
    </g>
    <g id="ytick_8">
     <g id="line2d_18">
      <g>
       <use xlink:href="#m9abfa496cd" x="343.022251" y="100.880012" style="fill: #7d8996; stroke: #7d8996; stroke-width: 0.8"/>
      </g>
     </g>
     <g id="text_20">
      <!-- 0 -->
      <g style="fill: #7d8996" transform="translate(329.659751 104.67884) scale(0.1 -0.1)">
       <use xlink:href="#DejaVuSans-13"/>
      </g>
     </g>
    </g>
    <g id="ytick_9">
     <g id="line2d_19">
      <g>
       <use xlink:href="#m9abfa496cd" x="343.022251" y="63.740431" style="fill: #7d8996; stroke: #7d8996; stroke-width: 0.8"/>
      </g>
     </g>
     <g id="text_21">
      <!-- 10 -->
      <g style="fill: #7d8996" transform="translate(323.297251 67.539259) scale(0.1 -0.1)">
       <use xlink:href="#DejaVuSans-14"/>
       <use xlink:href="#DejaVuSans-13" transform="translate(63.625 0)"/>
      </g>
     </g>
    </g>
    <g id="ytick_10">
     <g id="line2d_20">
      <g>
       <use xlink:href="#m9abfa496cd" x="343.022251" y="26.600851" style="fill: #7d8996; stroke: #7d8996; stroke-width: 0.8"/>
      </g>
     </g>
     <g id="text_22">
      <!-- 20 -->
      <g style="fill: #7d8996" transform="translate(323.297251 30.399679) scale(0.1 -0.1)">
       <use xlink:href="#DejaVuSans-15"/>
       <use xlink:href="#DejaVuSans-13" transform="translate(63.625 0)"/>
      </g>
     </g>
    </g>
    <g id="text_23">
     <!-- gradient amplitude [mT/m] -->
     <g style="fill: #7d8996" transform="translate(308.51522 167.426328) rotate(-90) scale(0.1 -0.1)">
      <defs>
       <path id="DejaVuSans-4a" d="M 2906 1791 
Q 2906 2416 2648 2759 
Q 2391 3103 1925 3103 
Q 1463 3103 1205 2759 
Q 947 2416 947 1791 
Q 947 1169 1205 825 
Q 1463 481 1925 481 
Q 2391 481 2648 825 
Q 2906 1169 2906 1791 
z
M 3481 434 
Q 3481 -459 3084 -895 
Q 2688 -1331 1869 -1331 
Q 1566 -1331 1297 -1286 
Q 1028 -1241 775 -1147 
L 775 -588 
Q 1028 -725 1275 -790 
Q 1522 -856 1778 -856 
Q 2344 -856 2625 -561 
Q 2906 -266 2906 331 
L 2906 616 
Q 2728 306 2450 153 
Q 2172 0 1784 0 
Q 1141 0 747 490 
Q 353 981 353 1791 
Q 353 2603 747 3093 
Q 1141 3584 1784 3584 
Q 2172 3584 2450 3431 
Q 2728 3278 2906 2969 
L 2906 3500 
L 3481 3500 
L 3481 434 
z
" transform="scale(0.015625)"/>
       <path id="DejaVuSans-55" d="M 2631 2963 
Q 2534 3019 2420 3045 
Q 2306 3072 2169 3072 
Q 1681 3072 1420 2755 
Q 1159 2438 1159 1844 
L 1159 0 
L 581 0 
L 581 3500 
L 1159 3500 
L 1159 2956 
Q 1341 3275 1631 3429 
Q 1922 3584 2338 3584 
Q 2397 3584 2469 3576 
Q 2541 3569 2628 3553 
L 2631 2963 
z
" transform="scale(0.015625)"/>
       <path id="DejaVuSans-44" d="M 2194 1759 
Q 1497 1759 1228 1600 
Q 959 1441 959 1056 
Q 959 750 1161 570 
Q 1363 391 1709 391 
Q 2188 391 2477 730 
Q 2766 1069 2766 1631 
L 2766 1759 
L 2194 1759 
z
M 3341 1997 
L 3341 0 
L 2766 0 
L 2766 531 
Q 2569 213 2275 61 
Q 1981 -91 1556 -91 
Q 1019 -91 701 211 
Q 384 513 384 1019 
Q 384 1609 779 1909 
Q 1175 2209 1959 2209 
L 2766 2209 
L 2766 2266 
Q 2766 2663 2505 2880 
Q 2244 3097 1772 3097 
Q 1472 3097 1187 3025 
Q 903 2953 641 2809 
L 641 3341 
Q 956 3463 1253 3523 
Q 1550 3584 1831 3584 
Q 2591 3584 2966 3190 
Q 3341 2797 3341 1997 
z
" transform="scale(0.015625)"/>
       <path id="DejaVuSans-47" d="M 2906 2969 
L 2906 4863 
L 3481 4863 
L 3481 0 
L 2906 0 
L 2906 525 
Q 2725 213 2448 61 
Q 2172 -91 1784 -91 
Q 1150 -91 751 415 
Q 353 922 353 1747 
Q 353 2572 751 3078 
Q 1150 3584 1784 3584 
Q 2172 3584 2448 3432 
Q 2725 3281 2906 2969 
z
M 947 1747 
Q 947 1113 1208 752 
Q 1469 391 1925 391 
Q 2381 391 2643 752 
Q 2906 1113 2906 1747 
Q 2906 2381 2643 2742 
Q 2381 3103 1925 3103 
Q 1469 3103 1208 2742 
Q 947 2381 947 1747 
z
" transform="scale(0.015625)"/>
       <path id="DejaVuSans-51" d="M 3513 2113 
L 3513 0 
L 2938 0 
L 2938 2094 
Q 2938 2591 2744 2837 
Q 2550 3084 2163 3084 
Q 1697 3084 1428 2787 
Q 1159 2491 1159 1978 
L 1159 0 
L 581 0 
L 581 3500 
L 1159 3500 
L 1159 2956 
Q 1366 3272 1645 3428 
Q 1925 3584 2291 3584 
Q 2894 3584 3203 3211 
Q 3513 2838 3513 2113 
z
" transform="scale(0.015625)"/>
       <path id="DejaVuSans-53" d="M 1159 525 
L 1159 -1331 
L 581 -1331 
L 581 3500 
L 1159 3500 
L 1159 2969 
Q 1341 3281 1617 3432 
Q 1894 3584 2278 3584 
Q 2916 3584 3314 3078 
Q 3713 2572 3713 1747 
Q 3713 922 3314 415 
Q 2916 -91 2278 -91 
Q 1894 -91 1617 61 
Q 1341 213 1159 525 
z
M 3116 1747 
Q 3116 2381 2855 2742 
Q 2594 3103 2138 3103 
Q 1681 3103 1420 2742 
Q 1159 2381 1159 1747 
Q 1159 1113 1420 752 
Q 1681 391 2138 391 
Q 2594 391 2855 752 
Q 3116 1113 3116 1747 
z
" transform="scale(0.015625)"/>
       <path id="DejaVuSans-4f" d="M 603 4863 
L 1178 4863 
L 1178 0 
L 603 0 
L 603 4863 
z
" transform="scale(0.015625)"/>
       <path id="DejaVuSans-58" d="M 544 1381 
L 544 3500 
L 1119 3500 
L 1119 1403 
Q 1119 906 1312 657 
Q 1506 409 1894 409 
Q 2359 409 2629 706 
Q 2900 1003 2900 1516 
L 2900 3500 
L 3475 3500 
L 3475 0 
L 2900 0 
L 2900 538 
Q 2691 219 2414 64 
Q 2138 -91 1772 -91 
Q 1169 -91 856 284 
Q 544 659 544 1381 
z
M 1991 3584 
L 1991 3584 
z
" transform="scale(0.015625)"/>
       <path id="DejaVuSans-37" d="M -19 4666 
L 3928 4666 
L 3928 4134 
L 2272 4134 
L 2272 0 
L 1638 0 
L 1638 4134 
L -19 4134 
L -19 4666 
z
" transform="scale(0.015625)"/>
      </defs>
      <use xlink:href="#DejaVuSans-4a"/>
      <use xlink:href="#DejaVuSans-55" transform="translate(63.484375 0)"/>
      <use xlink:href="#DejaVuSans-44" transform="translate(104.59375 0)"/>
      <use xlink:href="#DejaVuSans-47" transform="translate(165.875 0)"/>
      <use xlink:href="#DejaVuSans-4c" transform="translate(229.359375 0)"/>
      <use xlink:href="#DejaVuSans-48" transform="translate(257.140625 0)"/>
      <use xlink:href="#DejaVuSans-51" transform="translate(318.671875 0)"/>
      <use xlink:href="#DejaVuSans-57" transform="translate(382.046875 0)"/>
      <use xlink:href="#DejaVuSans-3" transform="translate(421.25 0)"/>
      <use xlink:href="#DejaVuSans-44" transform="translate(453.03125 0)"/>
      <use xlink:href="#DejaVuSans-50" transform="translate(514.3125 0)"/>
      <use xlink:href="#DejaVuSans-53" transform="translate(611.71875 0)"/>
      <use xlink:href="#DejaVuSans-4f" transform="translate(675.203125 0)"/>
      <use xlink:href="#DejaVuSans-4c" transform="translate(702.984375 0)"/>
      <use xlink:href="#DejaVuSans-57" transform="translate(730.765625 0)"/>
      <use xlink:href="#DejaVuSans-58" transform="translate(769.96875 0)"/>
      <use xlink:href="#DejaVuSans-47" transform="translate(833.34375 0)"/>
      <use xlink:href="#DejaVuSans-48" transform="translate(896.828125 0)"/>
      <use xlink:href="#DejaVuSans-3" transform="translate(958.359375 0)"/>
      <use xlink:href="#DejaVuSans-3e" transform="translate(990.140625 0)"/>
      <use xlink:href="#DejaVuSans-50" transform="translate(1029.15625 0)"/>
      <use xlink:href="#DejaVuSans-37" transform="translate(1126.5625 0)"/>
      <use xlink:href="#DejaVuSans-12" transform="translate(1187.640625 0)"/>
      <use xlink:href="#DejaVuSans-50" transform="translate(1221.328125 0)"/>
      <use xlink:href="#DejaVuSans-40" transform="translate(1318.734375 0)"/>
     </g>
    </g>
   </g>
   <g id="line2d_21">
    <path d="M 354.43033 100.880012 
L 356.212843 92.012351 
L 357.995355 97.493448 
L 359.777868 108.200679 
L 361.56038 117.91225 
L 363.342893 123.41821 
L 365.125405 123.523473 
L 366.907917 118.608113 
L 368.69043 109.952262 
L 374.037967 77.964169 
L 375.820479 70.100129 
L 377.602992 65.241516 
L 379.385504 63.783308 
L 381.168017 65.761913 
L 382.950529 70.905769 
L 384.733042 78.699717 
L 386.515554 88.45618 
L 391.863091 121.505512 
L 393.645604 131.17716 
L 395.428116 139.077341 
L 397.210629 144.741716 
L 398.993141 147.863335 
L 400.775653 148.298014 
L 402.558166 146.059884 
L 404.340678 141.309315 
L 406.123191 134.334187 
L 407.905703 125.526718 
L 409.688216 115.357018 
L 416.818265 71.635967 
L 418.600778 62.517769 
L 420.38329 54.998324 
L 422.165802 49.388159 
L 423.948315 45.907957 
L 425.730827 44.683324 
L 427.51334 45.744129 
L 429.295852 49.027762 
L 431.078365 54.385521 
L 432.860877 61.592097 
L 434.643389 70.357233 
L 436.425902 80.33923 
L 439.990927 102.418001 
L 443.555952 124.629323 
L 445.338464 134.805531 
L 447.120976 143.892236 
L 448.903489 151.589141 
L 450.686001 157.648624 
L 452.468514 161.881749 
L 454.251026 164.162535 
L 456.033539 164.429949 
L 457.816051 162.688022 
L 459.598563 159.003383 
L 461.381076 153.501314 
L 463.163588 146.360594 
L 464.946101 137.806186 
L 466.728613 128.101304 
L 470.293638 106.431261 
L 475.641175 73.071207 
L 477.423688 62.985274 
L 479.2062 53.894481 
L 480.988712 46.042969 
L 482.771225 39.637621 
L 484.553737 34.843304 
L 486.33625 31.780075 
L 488.118762 30.520351 
L 489.901275 31.088771 
L 491.683787 33.462364 
L 493.466299 37.572148 
L 495.248812 43.306217 
L 497.031324 50.513225 
L 498.813837 59.006967 
L 500.596349 68.572248 
L 504.161374 89.943948 
L 509.508911 123.641651 
L 511.291424 134.243803 
L 513.073936 144.11057 
L 514.856448 153.016371 
L 516.638961 160.760359 
L 518.421473 167.170452 
L 520.203986 172.106605 
L 521.986498 175.463425 
L 523.769011 177.171856 
L 525.551523 177.200059 
L 527.334035 175.553441 
L 529.116548 172.273822 
L 530.89906 167.437784 
L 532.681573 161.154823 
L 534.464085 153.563927 
L 536.246598 144.83043 
L 538.02911 135.142103 
L 541.594135 113.737559 
L 548.724184 69.163303 
L 550.506697 58.976483 
L 552.289209 49.594354 
L 554.071722 41.200689 
L 555.854234 33.958459 
L 557.636747 28.005871 
L 559.419259 23.455283 
L 561.201771 20.390922 
L 562.984284 18.867166 
L 564.766796 18.90893 
L 566.549309 20.510862 
L 568.331821 23.637845 
L 570.114334 28.22738 
L 571.896846 34.188774 
L 573.679358 41.407711 
L 575.461871 49.74698 
L 577.244383 59.050076 
L 579.026896 69.149527 
L 582.59192 91.095419 
L 582.59192 91.095419 
" clip-path="url(#pee167baa23)" style="fill: none; stroke: #2a78d6; stroke-linecap: square"/>
   </g>
   <g id="line2d_22">
    <path d="M 354.43033 100.880012 
L 356.212843 95.557346 
L 357.995355 87.390362 
L 359.777868 85.715539 
L 361.56038 90.730659 
L 363.342893 100.271131 
L 365.125405 111.350863 
L 366.907917 121.333584 
L 368.69043 128.380008 
L 370.472942 131.49806 
L 372.255455 130.436101 
L 374.037967 125.523598 
L 375.820479 117.501501 
L 377.602992 107.361522 
L 381.168017 85.119581 
L 382.950529 75.096588 
L 384.733042 66.954333 
L 386.515554 61.300918 
L 388.298066 58.513024 
L 390.080579 58.734655 
L 391.863091 61.89148 
L 393.645604 67.716962 
L 395.428116 75.787125 
L 397.210629 85.560214 
L 404.340678 129.047164 
L 406.123191 137.945194 
L 407.905703 145.03691 
L 409.688216 149.984168 
L 411.470728 152.567202 
L 413.25324 152.688144 
L 415.035753 150.368551 
L 416.818265 145.741694 
L 418.600778 139.040939 
L 420.38329 130.583778 
L 422.165802 120.754504 
L 425.730827 98.731166 
L 429.295852 76.626045 
L 431.078365 66.65196 
L 432.860877 57.918664 
L 434.643389 50.749705 
L 436.425902 45.402078 
L 438.208414 42.05943 
L 439.990927 40.828491 
L 441.773439 41.737733 
L 443.555952 44.739518 
L 445.338464 49.714739 
L 447.120976 56.478809 
L 448.903489 64.790888 
L 450.686001 74.363101 
L 454.251026 95.969962 
L 457.816051 118.493304 
L 459.598563 129.208768 
L 461.381076 139.115061 
L 463.163588 147.914304 
L 464.946101 155.347189 
L 466.728613 161.199519 
L 468.511125 165.307346 
L 470.293638 167.560371 
L 472.07615 167.903403 
L 473.858663 166.336754 
L 475.641175 162.914524 
L 477.423688 157.741902 
L 479.2062 150.970863 
L 480.988712 142.794649 
L 482.771225 133.441853 
L 486.33625 112.25452 
L 491.683787 78.579026 
L 493.466299 68.012524 
L 495.248812 58.231545 
L 497.031324 49.478744 
L 498.813837 41.967773 
L 500.596349 35.87934 
L 502.378861 31.356396 
L 504.161374 28.502456 
L 505.943886 27.379586 
L 507.726399 28.007511 
L 509.508911 30.364235 
L 511.291424 34.387672 
L 513.073936 39.977424 
L 514.856448 46.998073 
L 516.638961 55.282861 
L 518.421473 64.638188 
L 521.986498 85.6814 
L 529.116548 130.313394 
L 530.89906 140.572679 
L 532.681573 150.015578 
L 534.464085 158.443278 
L 536.246598 165.680509 
L 538.02911 171.57893 
L 539.811622 176.01952 
L 541.594135 178.914974 
L 543.376647 180.21049 
L 545.15916 179.884623 
L 546.941672 177.94928 
L 548.724184 174.448542 
L 550.506697 169.457858 
L 552.289209 163.081574 
L 554.071722 155.450634 
L 555.854234 146.719213 
L 557.636747 137.062241 
L 561.201771 115.747871 
L 568.331821 71.024848 
L 570.114334 60.649566 
L 571.896846 50.996861 
L 573.679358 42.244564 
L 575.461871 34.552043 
L 577.244383 28.057953 
L 579.026896 22.894184 
L 580.809408 20.666403 
L 582.59192 22.94139 
L 582.59192 22.94139 
" clip-path="url(#pee167baa23)" style="fill: none; stroke: #eb6834; stroke-linecap: square"/>
   </g>
   <g id="patch_8">
    <path d="M 343.022251 188.277656 
L 343.022251 10.8 
" style="fill: none; stroke: #7d8996; stroke-opacity: 0.34902; stroke-width: 0.8; stroke-linejoin: miter; stroke-linecap: square"/>
   </g>
   <g id="patch_9">
    <path d="M 594 188.277656 
L 594 10.8 
" style="fill: none; stroke: #7d8996; stroke-opacity: 0.34902; stroke-width: 0.8; stroke-linejoin: miter; stroke-linecap: square"/>
   </g>
   <g id="patch_10">
    <path d="M 343.022251 188.277656 
L 594 188.277656 
" style="fill: none; stroke: #7d8996; stroke-opacity: 0.34902; stroke-width: 0.8; stroke-linejoin: miter; stroke-linecap: square"/>
   </g>
   <g id="patch_11">
    <path d="M 343.022251 10.8 
L 594 10.8 
" style="fill: none; stroke: #7d8996; stroke-opacity: 0.34902; stroke-width: 0.8; stroke-linejoin: miter; stroke-linecap: square"/>
   </g>
   <g id="legend_1">
    <g id="line2d_23">
     <path d="M 352.022251 23.898438 
L 362.022251 23.898438 
L 372.022251 23.898438 
" style="fill: none; stroke: #2a78d6; stroke-linecap: square"/>
    </g>
    <g id="text_24">
     <!-- $G_{x}$ -->
     <g style="fill: #717c8b" transform="translate(380.022251 27.398438) scale(0.1 -0.1)">
      <defs>
       <path id="DejaVuSans-Oblique-2a" d="M 3494 697 
L 3738 1919 
L 2700 1919 
L 2797 2438 
L 4453 2438 
L 4050 384 
Q 3634 156 3143 32 
Q 2653 -91 2156 -91 
Q 1278 -91 783 396 
Q 288 884 288 1753 
Q 288 2475 589 3126 
Q 891 3778 1422 4213 
Q 1756 4484 2153 4617 
Q 2550 4750 3034 4750 
Q 3472 4750 3873 4639 
Q 4275 4528 4641 4306 
L 4513 3634 
Q 4231 3928 3853 4083 
Q 3475 4238 3047 4238 
Q 2550 4238 2172 4048 
Q 1794 3859 1497 3463 
Q 1244 3125 1098 2667 
Q 953 2209 953 1734 
Q 953 1081 1287 751 
Q 1622 422 2284 422 
Q 2616 422 2925 492 
Q 3234 563 3494 697 
z
" transform="scale(0.015625)"/>
      </defs>
      <use xlink:href="#DejaVuSans-Oblique-2a" transform="translate(0 0.78125)"/>
      <use xlink:href="#DejaVuSans-Oblique-5b" transform="translate(77.490234 -14.218701) scale(0.7)"/>
     </g>
    </g>
    <g id="line2d_24">
     <path d="M 352.022251 38.899219 
L 362.022251 38.899219 
L 372.022251 38.899219 
" style="fill: none; stroke: #eb6834; stroke-linecap: square"/>
    </g>
    <g id="text_25">
     <!-- $G_{y}$ -->
     <g style="fill: #717c8b" transform="translate(380.022251 42.399219) scale(0.1 -0.1)">
      <use xlink:href="#DejaVuSans-Oblique-2a" transform="translate(0 0.78125)"/>
      <use xlink:href="#DejaVuSans-Oblique-5c" transform="translate(77.490234 -14.218701) scale(0.7)"/>
     </g>
    </g>
   </g>
  </g>
 </g>
 <defs>
  <clipPath id="p27c1452fbf">
   <rect x="80.324306" y="10.8" width="190.051295" height="177.477656"/>
  </clipPath>
  <clipPath id="pee167baa23">
   <rect x="343.022251" y="10.8" width="250.977749" height="177.477656"/>
  </clipPath>
 </defs>
</svg>
