<?xml version="1.0" encoding="utf-8" standalone="no"?>
<!DOCTYPE svg PUBLIC "-//W3C//DTD SVG 1.1//EN"
  "http://www.w3.org/Graphics/SVG/1.1/DTD/svg11.dtd">
<svg xmlns:xlink="http://www.w3.org/1999/xlink" width="396pt" height="360pt" viewBox="0 0 396 360" xmlns="http://www.w3.org/2000/svg" version="1.1">
 <metadata>
  <rdf:RDF xmlns:dc="http://purl.org/dc/elements/1.1/" xmlns:cc="http://creativecommons.org/ns#" xmlns:rdf="http://www.w3.org/1999/02/22-rdf-syntax-ns#">
   <cc:Work>
    <dc:type rdf:resource="http://purl.org/dc/dcmitype/StillImage"/>
    <dc:date>2026-10-05T09:37:24.972836</dc:date>
    <dc:format>image/svg+xml</dc:format>
    <dc:creator>
     <cc:Agent>
      <dc:title>Matplotlib v3.11.2, https://matplotlib.org/</dc:title>
     </cc:Agent>
    </dc:creator>
   </cc:Work>
  </rdf:RDF>
 </metadata>
 <defs>
  <style type="text/css">*{stroke-linejoin: round; stroke-linecap: butt}</style>
 </defs>
 <g id="figure_1">
  <g id="patch_1">
   <path d="M 0 360 
L 396 360 
L 396 0 
L 0 0 
L 0 360 
z
" style="fill: none"/>
  </g>
  <g id="axes_1">
   <g id="patch_2">
    <path d="M 51.605455 180 
L 380.528961 180 
L 380.528961 180 
L 51.605455 180 
L 51.605455 180 
z
" style="fill: none"/>
   </g>
   <g id="PathCollection_1">
    <defs>
     <path id="m269d262c0b" d="M 0 0.612372 
C 0.162403 0.612372 0.318176 0.547849 0.433013 0.433013 
C 0.547849 0.318176 0.612372 0.162403 0.612372 0 
C 0.612372 -0.162403 0.547849 -0.318176 0.433013 -0.433013 
C 0.318176 -0.547849 0.162403 -0.612372 0 -0.612372 
C -0.162403 -0.612372 -0.318176 -0.547849 -0.433013 -0.433013 
C -0.547849 -0.318176 -0.612372 -0.162403 -0.612372 0 
C -0.612372 0.162403 -0.547849 0.318176 -0.433013 0.433013 
C -0.318176 0.547849 -0.162403 0.612372 0 0.612372 
z
" style="stroke: #2a78d6"/>
    </defs>
    <g clip-path="url(#p9a9b5801bf)">
     <use xlink:href="#m269d262c0b" x="66.556523" y="180" style="fill: #2a78d6; stroke: #2a78d6"/>
     <use xlink:href="#m269d262c0b" x="71.302894" y="180" style="fill: #2a78d6; stroke: #2a78d6"/>
     <use xlink:href="#m269d262c0b" x="76.049265" y="180" style="fill: #2a78d6; stroke: #2a78d6"/>
     <use xlink:href="#m269d262c0b" x="80.795636" y="180" style="fill: #2a78d6; stroke: #2a78d6"/>
     <use xlink:href="#m269d262c0b" x="85.542007" y="180" style="fill: #2a78d6; stroke: #2a78d6"/>
     <use xlink:href="#m269d262c0b" x="90.288378" y="180" style="fill: #2a78d6; stroke: #2a78d6"/>
     <use xlink:href="#m269d262c0b" x="95.034749" y="180" style="fill: #2a78d6; stroke: #2a78d6"/>
     <use xlink:href="#m269d262c0b" x="99.78112" y="180" style="fill: #2a78d6; stroke: #2a78d6"/>
     <use xlink:href="#m269d262c0b" x="104.527491" y="180" style="fill: #2a78d6; stroke: #2a78d6"/>
     <use xlink:href="#m269d262c0b" x="109.273862" y="180" style="fill: #2a78d6; stroke: #2a78d6"/>
     <use xlink:href="#m269d262c0b" x="114.020232" y="180" style="fill: #2a78d6; stroke: #2a78d6"/>
     <use xlink:href="#m269d262c0b" x="118.766603" y="180" style="fill: #2a78d6; stroke: #2a78d6"/>
     <use xlink:href="#m269d262c0b" x="123.512974" y="180" style="fill: #2a78d6; stroke: #2a78d6"/>
     <use xlink:href="#m269d262c0b" x="128.259345" y="180" style="fill: #2a78d6; stroke: #2a78d6"/>
     <use xlink:href="#m269d262c0b" x="133.005716" y="180" style="fill: #2a78d6; stroke: #2a78d6"/>
     <use xlink:href="#m269d262c0b" x="137.752087" y="180" style="fill: #2a78d6; stroke: #2a78d6"/>
     <use xlink:href="#m269d262c0b" x="142.498458" y="180" style="fill: #2a78d6; stroke: #2a78d6"/>
     <use xlink:href="#m269d262c0b" x="147.244829" y="180" style="fill: #2a78d6; stroke: #2a78d6"/>
     <use xlink:href="#m269d262c0b" x="151.9912" y="180" style="fill: #2a78d6; stroke: #2a78d6"/>
     <use xlink:href="#m269d262c0b" x="156.737571" y="180" style="fill: #2a78d6; stroke: #2a78d6"/>
     <use xlink:href="#m269d262c0b" x="161.483942" y="180" style="fill: #2a78d6; stroke: #2a78d6"/>
     <use xlink:href="#m269d262c0b" x="166.230313" y="180" style="fill: #2a78d6; stroke: #2a78d6"/>
     <use xlink:href="#m269d262c0b" x="170.976684" y="180" style="fill: #2a78d6; stroke: #2a78d6"/>
     <use xlink:href="#m269d262c0b" x="175.723055" y="180" style="fill: #2a78d6; stroke: #2a78d6"/>
     <use xlink:href="#m269d262c0b" x="180.469426" y="180" style="fill: #2a78d6; stroke: #2a78d6"/>
     <use xlink:href="#m269d262c0b" x="185.215797" y="180" style="fill: #2a78d6; stroke: #2a78d6"/>
     <use xlink:href="#m269d262c0b" x="189.962168" y="180" style="fill: #2a78d6; stroke: #2a78d6"/>
     <use xlink:href="#m269d262c0b" x="194.708539" y="180" style="fill: #2a78d6; stroke: #2a78d6"/>
     <use xlink:href="#m269d262c0b" x="199.454909" y="180" style="fill: #2a78d6; stroke: #2a78d6"/>
     <use xlink:href="#m269d262c0b" x="204.20128" y="180" style="fill: #2a78d6; stroke: #2a78d6"/>
     <use xlink:href="#m269d262c0b" x="208.947651" y="180" style="fill: #2a78d6; stroke: #2a78d6"/>
     <use xlink:href="#m269d262c0b" x="213.694022" y="180" style="fill: #2a78d6; stroke: #2a78d6"/>
     <use xlink:href="#m269d262c0b" x="218.440393" y="180" style="fill: #2a78d6; stroke: #2a78d6"/>
     <use xlink:href="#m269d262c0b" x="223.186764" y="180" style="fill: #2a78d6; stroke: #2a78d6"/>
     <use xlink:href="#m269d262c0b" x="227.933135" y="180" style="fill: #2a78d6; stroke: #2a78d6"/>
     <use xlink:href="#m269d262c0b" x="232.679506" y="180" style="fill: #2a78d6; stroke: #2a78d6"/>
     <use xlink:href="#m269d262c0b" x="237.425877" y="180" style="fill: #2a78d6; stroke: #2a78d6"/>
     <use xlink:href="#m269d262c0b" x="242.172248" y="180" style="fill: #2a78d6; stroke: #2a78d6"/>
     <use xlink:href="#m269d262c0b" x="246.918619" y="180" style="fill: #2a78d6; stroke: #2a78d6"/>
     <use xlink:href="#m269d262c0b" x="251.66499" y="180" style="fill: #2a78d6; stroke: #2a78d6"/>
     <use xlink:href="#m269d262c0b" x="256.411361" y="180" style="fill: #2a78d6; stroke: #2a78d6"/>
     <use xlink:href="#m269d262c0b" x="261.157732" y="180" style="fill: #2a78d6; stroke: #2a78d6"/>
     <use xlink:href="#m269d262c0b" x="265.904103" y="180" style="fill: #2a78d6; stroke: #2a78d6"/>
     <use xlink:href="#m269d262c0b" x="270.650474" y="180" style="fill: #2a78d6; stroke: #2a78d6"/>
     <use xlink:href="#m269d262c0b" x="275.396845" y="180" style="fill: #2a78d6; stroke: #2a78d6"/>
     <use xlink:href="#m269d262c0b" x="280.143216" y="180" style="fill: #2a78d6; stroke: #2a78d6"/>
     <use xlink:href="#m269d262c0b" x="284.889586" y="180" style="fill: #2a78d6; stroke: #2a78d6"/>
     <use xlink:href="#m269d262c0b" x="289.635957" y="180" style="fill: #2a78d6; stroke: #2a78d6"/>
     <use xlink:href="#m269d262c0b" x="294.382328" y="180" style="fill: #2a78d6; stroke: #2a78d6"/>
     <use xlink:href="#m269d262c0b" x="299.128699" y="180" style="fill: #2a78d6; stroke: #2a78d6"/>
     <use xlink:href="#m269d262c0b" x="303.87507" y="180" style="fill: #2a78d6; stroke: #2a78d6"/>
     <use xlink:href="#m269d262c0b" x="308.621441" y="180" style="fill: #2a78d6; stroke: #2a78d6"/>
     <use xlink:href="#m269d262c0b" x="313.367812" y="180" style="fill: #2a78d6; stroke: #2a78d6"/>
     <use xlink:href="#m269d262c0b" x="318.114183" y="180" style="fill: #2a78d6; stroke: #2a78d6"/>
     <use xlink:href="#m269d262c0b" x="322.860554" y="180" style="fill: #2a78d6; stroke: #2a78d6"/>
     <use xlink:href="#m269d262c0b" x="327.606925" y="180" style="fill: #2a78d6; stroke: #2a78d6"/>
     <use xlink:href="#m269d262c0b" x="332.353296" y="180" style="fill: #2a78d6; stroke: #2a78d6"/>
     <use xlink:href="#m269d262c0b" x="337.099667" y="180" style="fill: #2a78d6; stroke: #2a78d6"/>
     <use xlink:href="#m269d262c0b" x="341.846038" y="180" style="fill: #2a78d6; stroke: #2a78d6"/>
     <use xlink:href="#m269d262c0b" x="346.592409" y="180" style="fill: #2a78d6; stroke: #2a78d6"/>
     <use xlink:href="#m269d262c0b" x="351.33878" y="180" style="fill: #2a78d6; stroke: #2a78d6"/>
     <use xlink:href="#m269d262c0b" x="356.085151" y="180" style="fill: #2a78d6; stroke: #2a78d6"/>
     <use xlink:href="#m269d262c0b" x="360.831522" y="180" style="fill: #2a78d6; stroke: #2a78d6"/>
     <use xlink:href="#m269d262c0b" x="365.577893" y="180" style="fill: #2a78d6; stroke: #2a78d6"/>
    </g>
   </g>
   <g id="matplotlib.axis_1">
    <g id="xtick_1">
     <g id="line2d_1">
      <defs>
       <path id="med4b2f42c4" d="M 0 0 
L 0 3 
" style="stroke: #7d8996; stroke-width: 0.8"/>
      </defs>
      <g>
       <use xlink:href="#med4b2f42c4" x="59.436967" y="180" style="fill: #7d8996; stroke: #7d8996; stroke-width: 0.8"/>
      </g>
     </g>
     <g id="text_1">
      <!-- −150 -->
      <g style="fill: #7d8996" transform="translate(45.708866 194.094617) scale(0.09996 -0.09996)">
       <defs>
        <path id="DejaVuSans-c9c" d="M 678 2272 
L 4684 2272 
L 4684 1741 
L 678 1741 
L 678 2272 
z
" transform="scale(0.015625)"/>
        <path id="DejaVuSans-14" d="M 794 531 
L 1825 531 
L 1825 4091 
L 703 3866 
L 703 4441 
L 1819 4666 
L 2450 4666 
L 2450 531 
L 3481 531 
L 3481 0 
L 794 0 
L 794 531 
z
" transform="scale(0.015625)"/>
        <path id="DejaVuSans-18" d="M 691 4666 
L 3169 4666 
L 3169 4134 
L 1269 4134 
L 1269 2991 
Q 1406 3038 1543 3061 
Q 1681 3084 1819 3084 
Q 2600 3084 3056 2656 
Q 3513 2228 3513 1497 
Q 3513 744 3044 326 
Q 2575 -91 1722 -91 
Q 1428 -91 1123 -41 
Q 819 9 494 109 
L 494 744 
Q 775 591 1075 516 
Q 1375 441 1709 441 
Q 2250 441 2565 725 
Q 2881 1009 2881 1497 
Q 2881 1984 2565 2268 
Q 2250 2553 1709 2553 
Q 1456 2553 1204 2497 
Q 953 2441 691 2322 
L 691 4666 
z
" transform="scale(0.015625)"/>
        <path id="DejaVuSans-13" d="M 2034 4250 
Q 1547 4250 1301 3770 
Q 1056 3291 1056 2328 
Q 1056 1369 1301 889 
Q 1547 409 2034 409 
Q 2525 409 2770 889 
Q 3016 1369 3016 2328 
Q 3016 3291 2770 3770 
Q 2525 4250 2034 4250 
z
M 2034 4750 
Q 2819 4750 3233 4129 
Q 3647 3509 3647 2328 
Q 3647 1150 3233 529 
Q 2819 -91 2034 -91 
Q 1250 -91 836 529 
Q 422 1150 422 2328 
Q 422 3509 836 4129 
Q 1250 4750 2034 4750 
z
" transform="scale(0.015625)"/>
       </defs>
       <use xlink:href="#DejaVuSans-c9c"/>
       <use xlink:href="#DejaVuSans-14" transform="translate(83.796875 0)"/>
       <use xlink:href="#DejaVuSans-18" transform="translate(147.421875 0)"/>
       <use xlink:href="#DejaVuSans-13" transform="translate(211.046875 0)"/>
      </g>
     </g>
    </g>
    <g id="xtick_2">
     <g id="line2d_2">
      <g>
       <use xlink:href="#med4b2f42c4" x="111.647047" y="180" style="fill: #7d8996; stroke: #7d8996; stroke-width: 0.8"/>
      </g>
     </g>
     <g id="text_2">
      <!-- −100 -->
      <g style="fill: #7d8996" transform="translate(97.918947 194.094617) scale(0.09996 -0.09996)">
       <use xlink:href="#DejaVuSans-c9c"/>
       <use xlink:href="#DejaVuSans-14" transform="translate(83.796875 0)"/>
       <use xlink:href="#DejaVuSans-13" transform="translate(147.421875 0)"/>
       <use xlink:href="#DejaVuSans-13" transform="translate(211.046875 0)"/>
      </g>
     </g>
    </g>
    <g id="xtick_3">
     <g id="line2d_3">
      <g>
       <use xlink:href="#med4b2f42c4" x="163.857127" y="180" style="fill: #7d8996; stroke: #7d8996; stroke-width: 0.8"/>
      </g>
     </g>
     <g id="text_3">
      <!-- −50 -->
      <g style="fill: #7d8996" transform="translate(153.309005 194.094617) scale(0.09996 -0.09996)">
       <use xlink:href="#DejaVuSans-c9c"/>
       <use xlink:href="#DejaVuSans-18" transform="translate(83.796875 0)"/>
       <use xlink:href="#DejaVuSans-13" transform="translate(147.421875 0)"/>
      </g>
     </g>
    </g>
    <g id="xtick_4">
     <g id="line2d_4">
      <g>
       <use xlink:href="#med4b2f42c4" x="216.067208" y="180" style="fill: #7d8996; stroke: #7d8996; stroke-width: 0.8"/>
      </g>
     </g>
     <g id="text_4">
      <!-- 0 -->
      <g style="fill: #7d8996" transform="translate(212.88723 194.094617) scale(0.09996 -0.09996)">
       <use xlink:href="#DejaVuSans-13"/>
      </g>
     </g>
    </g>
    <g id="xtick_5">
     <g id="line2d_5">
      <g>
       <use xlink:href="#med4b2f42c4" x="268.277288" y="180" style="fill: #7d8996; stroke: #7d8996; stroke-width: 0.8"/>
      </g>
     </g>
     <g id="text_5">
      <!-- 50 -->
      <g style="fill: #7d8996" transform="translate(261.917333 194.094617) scale(0.09996 -0.09996)">
       <use xlink:href="#DejaVuSans-18"/>
       <use xlink:href="#DejaVuSans-13" transform="translate(63.625 0)"/>
      </g>
     </g>
    </g>
    <g id="xtick_6">
     <g id="line2d_6">
      <g>
       <use xlink:href="#med4b2f42c4" x="320.487369" y="180" style="fill: #7d8996; stroke: #7d8996; stroke-width: 0.8"/>
      </g>
     </g>
     <g id="text_6">
      <!-- 100 -->
      <g style="fill: #7d8996" transform="translate(310.947436 194.094617) scale(0.09996 -0.09996)">
       <use xlink:href="#DejaVuSans-14"/>
       <use xlink:href="#DejaVuSans-13" transform="translate(63.625 0)"/>
       <use xlink:href="#DejaVuSans-13" transform="translate(127.25 0)"/>
      </g>
     </g>
    </g>
    <g id="xtick_7">
     <g id="line2d_7">
      <g>
       <use xlink:href="#med4b2f42c4" x="372.697449" y="180" style="fill: #7d8996; stroke: #7d8996; stroke-width: 0.8"/>
      </g>
     </g>
     <g id="text_7">
      <!-- 150 -->
      <g style="fill: #7d8996" transform="translate(363.157516 194.094617) scale(0.09996 -0.09996)">
       <use xlink:href="#DejaVuSans-14"/>
       <use xlink:href="#DejaVuSans-18" transform="translate(63.625 0)"/>
       <use xlink:href="#DejaVuSans-13" transform="translate(127.25 0)"/>
      </g>
     </g>
    </g>
    <g id="text_8">
     <!-- $k_x$ [1/m] -->
     <g style="fill: #7d8996" transform="translate(191.647208 209.616) scale(0.12 -0.12)">
      <defs>
       <path id="DejaVuSans-Oblique-4e" d="M 1172 4863 
L 1747 4863 
L 1197 2028 
L 3169 3500 
L 3916 3500 
L 1716 1825 
L 3322 0 
L 2625 0 
L 1131 1709 
L 800 0 
L 225 0 
L 1172 4863 
z
" transform="scale(0.015625)"/>
       <path id="DejaVuSans-Oblique-5b" d="M 3841 3500 
L 2234 1784 
L 3219 0 
L 2559 0 
L 1819 1388 
L 531 0 
L -166 0 
L 1556 1844 
L 641 3500 
L 1300 3500 
L 1972 2234 
L 3144 3500 
L 3841 3500 
z
" transform="scale(0.015625)"/>
       <path id="DejaVuSans-3" transform="scale(0.015625)"/>
       <path id="DejaVuSans-3e" d="M 550 4863 
L 1875 4863 
L 1875 4416 
L 1125 4416 
L 1125 -397 
L 1875 -397 
L 1875 -844 
L 550 -844 
L 550 4863 
z
" transform="scale(0.015625)"/>
       <path id="DejaVuSans-12" d="M 1625 4666 
L 2156 4666 
L 531 -594 
L 0 -594 
L 1625 4666 
z
" transform="scale(0.015625)"/>
       <path id="DejaVuSans-50" d="M 3328 2828 
Q 3544 3216 3844 3400 
Q 4144 3584 4550 3584 
Q 5097 3584 5394 3201 
Q 5691 2819 5691 2113 
L 5691 0 
L 5113 0 
L 5113 2094 
Q 5113 2597 4934 2840 
Q 4756 3084 4391 3084 
Q 3944 3084 3684 2787 
Q 3425 2491 3425 1978 
L 3425 0 
L 2847 0 
L 2847 2094 
Q 2847 2600 2669 2842 
Q 2491 3084 2119 3084 
Q 1678 3084 1418 2786 
Q 1159 2488 1159 1978 
L 1159 0 
L 581 0 
L 581 3500 
L 1159 3500 
L 1159 2956 
Q 1356 3278 1631 3431 
Q 1906 3584 2284 3584 
Q 2666 3584 2933 3390 
Q 3200 3197 3328 2828 
z
" transform="scale(0.015625)"/>
       <path id="DejaVuSans-40" d="M 1947 4863 
L 1947 -844 
L 622 -844 
L 622 -397 
L 1369 -397 
L 1369 4416 
L 622 4416 
L 622 4863 
L 1947 4863 
z
" transform="scale(0.015625)"/>
      </defs>
      <use xlink:href="#DejaVuSans-Oblique-4e" transform="translate(0 0.015625)"/>
      <use xlink:href="#DejaVuSans-Oblique-5b" transform="translate(57.910156 -14.984326) scale(0.7)"/>
      <use xlink:href="#DejaVuSans-3" transform="translate(102.070312 0.015625)"/>
      <use xlink:href="#DejaVuSans-3e" transform="translate(133.857422 0.015625)"/>
      <use xlink:href="#DejaVuSans-14" transform="translate(172.871094 0.015625)"/>
      <use xlink:href="#DejaVuSans-12" transform="translate(236.494141 0.015625)"/>
      <use xlink:href="#DejaVuSans-50" transform="translate(270.185547 0.015625)"/>
      <use xlink:href="#DejaVuSans-40" transform="translate(367.597656 0.015625)"/>
     </g>
    </g>
   </g>
   <g id="matplotlib.axis_2">
    <g id="ytick_1">
     <g id="line2d_8">
      <defs>
       <path id="m0e55e2797f" d="M 0 0 
L -3 0 
" style="stroke: #7d8996; stroke-width: 0.8"/>
      </defs>
      <g>
       <use xlink:href="#m0e55e2797f" x="51.605455" y="180" style="fill: #7d8996; stroke: #7d8996; stroke-width: 0.8"/>
      </g>
     </g>
     <g id="text_9">
      <!-- −5 -->
      <g style="fill: #7d8996" transform="translate(30.369164 183.797309) scale(0.09996 -0.09996)">
       <use xlink:href="#DejaVuSans-c9c"/>
       <use xlink:href="#DejaVuSans-18" transform="translate(83.796875 0)"/>
      </g>
     </g>
    </g>
    <g id="ytick_2">
     <g id="line2d_9">
      <g>
       <use xlink:href="#m0e55e2797f" x="51.605455" y="180" style="fill: #7d8996; stroke: #7d8996; stroke-width: 0.8"/>
      </g>
     </g>
     <g id="text_10">
      <!-- 0 -->
      <g style="fill: #7d8996" transform="translate(38.7455 183.797309) scale(0.09996 -0.09996)">
       <use xlink:href="#DejaVuSans-13"/>
      </g>
     </g>
    </g>
    <g id="ytick_3">
     <g id="line2d_10">
      <g>
       <use xlink:href="#m0e55e2797f" x="51.605455" y="180" style="fill: #7d8996; stroke: #7d8996; stroke-width: 0.8"/>
      </g>
     </g>
     <g id="text_11">
      <!-- 5 -->
      <g style="fill: #7d8996" transform="translate(38.7455 183.797309) scale(0.09996 -0.09996)">
       <use xlink:href="#DejaVuSans-18"/>
      </g>
     </g>
    </g>
    <g id="text_12">
     <!-- $k_y$ [1/m] -->
     <g style="fill: #7d8996" transform="translate(22.769164 204.42) rotate(-90) scale(0.12 -0.12)">
      <defs>
       <path id="DejaVuSans-Oblique-5c" d="M 1588 -325 
Q 1188 -997 936 -1164 
Q 684 -1331 294 -1331 
L -159 -1331 
L -63 -850 
L 269 -850 
Q 509 -850 678 -719 
Q 847 -588 1056 -206 
L 1234 128 
L 459 3500 
L 1069 3500 
L 1650 819 
L 3256 3500 
L 3859 3500 
L 1588 -325 
z
" transform="scale(0.015625)"/>
      </defs>
      <use xlink:href="#DejaVuSans-Oblique-4e" transform="translate(0 0.015625)"/>
      <use xlink:href="#DejaVuSans-Oblique-5c" transform="translate(57.910156 -14.984326) scale(0.7)"/>
      <use xlink:href="#DejaVuSans-3" transform="translate(102.070312 0.015625)"/>
      <use xlink:href="#DejaVuSans-3e" transform="translate(133.857422 0.015625)"/>
      <use xlink:href="#DejaVuSans-14" transform="translate(172.871094 0.015625)"/>
      <use xlink:href="#DejaVuSans-12" transform="translate(236.494141 0.015625)"/>
      <use xlink:href="#DejaVuSans-50" transform="translate(270.185547 0.015625)"/>
      <use xlink:href="#DejaVuSans-40" transform="translate(367.597656 0.015625)"/>
     </g>
    </g>
    <g id="text_13">
     <!-- 1e−14 -->
     <g style="fill: #7d8996" transform="translate(51.605455 177) scale(0.11 -0.11)">
      <defs>
       <path id="DejaVuSans-48" d="M 3597 1894 
L 3597 1613 
L 953 1613 
Q 991 1019 1311 708 
Q 1631 397 2203 397 
Q 2534 397 2845 478 
Q 3156 559 3463 722 
L 3463 178 
Q 3153 47 2828 -22 
Q 2503 -91 2169 -91 
Q 1331 -91 842 396 
Q 353 884 353 1716 
Q 353 2575 817 3079 
Q 1281 3584 2069 3584 
Q 2775 3584 3186 3129 
Q 3597 2675 3597 1894 
z
M 3022 2063 
Q 3016 2534 2758 2815 
Q 2500 3097 2075 3097 
Q 1594 3097 1305 2825 
Q 1016 2553 972 2059 
L 3022 2063 
z
" transform="scale(0.015625)"/>
       <path id="DejaVuSans-17" d="M 2419 4116 
L 825 1625 
L 2419 1625 
L 2419 4116 
z
M 2253 4666 
L 3047 4666 
L 3047 1625 
L 3713 1625 
L 3713 1100 
L 3047 1100 
L 3047 0 
L 2419 0 
L 2419 1100 
L 313 1100 
L 313 1709 
L 2253 4666 
z
" transform="scale(0.015625)"/>
      </defs>
      <use xlink:href="#DejaVuSans-14"/>
      <use xlink:href="#DejaVuSans-48" transform="translate(63.625 0)"/>
      <use xlink:href="#DejaVuSans-c9c" transform="translate(125.15625 0)"/>
      <use xlink:href="#DejaVuSans-14" transform="translate(208.953125 0)"/>
      <use xlink:href="#DejaVuSans-17" transform="translate(272.578125 0)"/>
     </g>
    </g>
   </g>
   <g id="line2d_11">
    <path d="M 216.067208 180 
M 216.067208 180 
L 45.197854 180 
L 386.936562 180 
L 216.067208 180 
" clip-path="url(#p9a9b5801bf)" style="fill: none; stroke: #7d8996; stroke-width: 0.4; stroke-linecap: square"/>
   </g>
   <g id="patch_3">
    <path d="M 51.605455 180 
L 51.605455 180 
" style="fill: none; stroke: #7d8996; stroke-opacity: 0.34902; stroke-width: 0.8; stroke-linejoin: miter; stroke-linecap: square"/>
   </g>
   <g id="patch_4">
    <path d="M 51.605455 180 
L 380.528961 180 
" style="fill: none; stroke: #7d8996; stroke-opacity: 0.34902; stroke-width: 0.8; stroke-linejoin: miter; stroke-linecap: square"/>
   </g>
  </g>
 </g>
 <defs>
  <clipPath id="p9a9b5801bf">
   <rect x="51.605455" y="180" width="328.923506" height="0"/>
  </clipPath>
 </defs>
</svg>
