<?xml version="1.0" encoding="utf-8" standalone="no"?>
<!DOCTYPE svg PUBLIC "-//W3C//DTD SVG 1.1//EN"
  "http://www.w3.org/Graphics/SVG/1.1/DTD/svg11.dtd">
<svg xmlns:xlink="http://www.w3.org/1999/xlink" width="396pt" height="360pt" viewBox="0 0 396 360" xmlns="http://www.w3.org/2000/svg" version="1.1">
 <metadata>
  <rdf:RDF xmlns:dc="http://purl.org/dc/elements/1.1/" xmlns:cc="http://creativecommons.org/ns#" xmlns:rdf="http://www.w3.org/1999/02/22-rdf-syntax-ns#">
   <cc:Work>
    <dc:type rdf:resource="http://purl.org/dc/dcmitype/StillImage"/>
    <dc:date>2026-09-25T12:44:07.603258</dc:date>
    <dc:format>image/svg+xml</dc:format>
    <dc:creator>
     <cc:Agent>
      <dc:title>Matplotlib v3.11.2, https://matplotlib.org/</dc:title>
     </cc:Agent>
    </dc:creator>
   </cc:Work>
  </rdf:RDF>
 </metadata>
 <defs>
  <style type="text/css">*{stroke-linejoin: round; stroke-linecap: butt}</style>
 </defs>
 <g id="figure_1">
  <g id="patch_1">
   <path d="M 0 360 
L 396 360 
L 396 0 
L 0 0 
L 0 360 
z
" style="fill: none"/>
  </g>
  <g id="axes_1">
   <g id="patch_2">
    <path d="M 47.94 187.786667 
L 385.2 187.786667 
L 385.2 172.213333 
L 47.94 172.213333 
L 47.94 187.786667 
z
" style="fill: none"/>
   </g>
   <g id="PathCollection_1">
    <defs>
     <path id="m7a942715fe" d="M 0 0.612372 
C 0.162403 0.612372 0.318176 0.547849 0.433013 0.433013 
C 0.547849 0.318176 0.612372 0.162403 0.612372 0 
C 0.612372 -0.162403 0.547849 -0.318176 0.433013 -0.433013 
C 0.318176 -0.547849 0.162403 -0.612372 0 -0.612372 
C -0.162403 -0.612372 -0.318176 -0.547849 -0.433013 -0.433013 
C -0.547849 -0.318176 -0.612372 -0.162403 -0.612372 0 
C -0.612372 0.162403 -0.547849 0.318176 -0.433013 0.433013 
C -0.318176 0.547849 -0.162403 0.612372 0 0.612372 
z
" style="stroke: #2a78d6"/>
    </defs>
    <g clip-path="url(#p672cb59062)">
     <use xlink:href="#m7a942715fe" x="63.27" y="180" style="fill: #2a78d6; stroke: #2a78d6"/>
     <use xlink:href="#m7a942715fe" x="68.136667" y="180" style="fill: #2a78d6; stroke: #2a78d6"/>
     <use xlink:href="#m7a942715fe" x="73.003333" y="180" style="fill: #2a78d6; stroke: #2a78d6"/>
     <use xlink:href="#m7a942715fe" x="77.87" y="180" style="fill: #2a78d6; stroke: #2a78d6"/>
     <use xlink:href="#m7a942715fe" x="82.736667" y="180" style="fill: #2a78d6; stroke: #2a78d6"/>
     <use xlink:href="#m7a942715fe" x="87.603333" y="180" style="fill: #2a78d6; stroke: #2a78d6"/>
     <use xlink:href="#m7a942715fe" x="92.47" y="180" style="fill: #2a78d6; stroke: #2a78d6"/>
     <use xlink:href="#m7a942715fe" x="97.336667" y="180" style="fill: #2a78d6; stroke: #2a78d6"/>
     <use xlink:href="#m7a942715fe" x="102.203333" y="180" style="fill: #2a78d6; stroke: #2a78d6"/>
     <use xlink:href="#m7a942715fe" x="107.07" y="180" style="fill: #2a78d6; stroke: #2a78d6"/>
     <use xlink:href="#m7a942715fe" x="111.936667" y="180" style="fill: #2a78d6; stroke: #2a78d6"/>
     <use xlink:href="#m7a942715fe" x="116.803333" y="180" style="fill: #2a78d6; stroke: #2a78d6"/>
     <use xlink:href="#m7a942715fe" x="121.67" y="180" style="fill: #2a78d6; stroke: #2a78d6"/>
     <use xlink:href="#m7a942715fe" x="126.536667" y="180" style="fill: #2a78d6; stroke: #2a78d6"/>
     <use xlink:href="#m7a942715fe" x="131.403333" y="180" style="fill: #2a78d6; stroke: #2a78d6"/>
     <use xlink:href="#m7a942715fe" x="136.27" y="180" style="fill: #2a78d6; stroke: #2a78d6"/>
     <use xlink:href="#m7a942715fe" x="141.136667" y="180" style="fill: #2a78d6; stroke: #2a78d6"/>
     <use xlink:href="#m7a942715fe" x="146.003333" y="180" style="fill: #2a78d6; stroke: #2a78d6"/>
     <use xlink:href="#m7a942715fe" x="150.87" y="180" style="fill: #2a78d6; stroke: #2a78d6"/>
     <use xlink:href="#m7a942715fe" x="155.736667" y="180" style="fill: #2a78d6; stroke: #2a78d6"/>
     <use xlink:href="#m7a942715fe" x="160.603333" y="180" style="fill: #2a78d6; stroke: #2a78d6"/>
     <use xlink:href="#m7a942715fe" x="165.47" y="180" style="fill: #2a78d6; stroke: #2a78d6"/>
     <use xlink:href="#m7a942715fe" x="170.336667" y="180" style="fill: #2a78d6; stroke: #2a78d6"/>
     <use xlink:href="#m7a942715fe" x="175.203333" y="180" style="fill: #2a78d6; stroke: #2a78d6"/>
     <use xlink:href="#m7a942715fe" x="180.07" y="180" style="fill: #2a78d6; stroke: #2a78d6"/>
     <use xlink:href="#m7a942715fe" x="184.936667" y="180" style="fill: #2a78d6; stroke: #2a78d6"/>
     <use xlink:href="#m7a942715fe" x="189.803333" y="180" style="fill: #2a78d6; stroke: #2a78d6"/>
     <use xlink:href="#m7a942715fe" x="194.67" y="180" style="fill: #2a78d6; stroke: #2a78d6"/>
     <use xlink:href="#m7a942715fe" x="199.536667" y="180" style="fill: #2a78d6; stroke: #2a78d6"/>
     <use xlink:href="#m7a942715fe" x="204.403333" y="180" style="fill: #2a78d6; stroke: #2a78d6"/>
     <use xlink:href="#m7a942715fe" x="209.27" y="180" style="fill: #2a78d6; stroke: #2a78d6"/>
     <use xlink:href="#m7a942715fe" x="214.136667" y="180" style="fill: #2a78d6; stroke: #2a78d6"/>
     <use xlink:href="#m7a942715fe" x="219.003333" y="180" style="fill: #2a78d6; stroke: #2a78d6"/>
     <use xlink:href="#m7a942715fe" x="223.87" y="180" style="fill: #2a78d6; stroke: #2a78d6"/>
     <use xlink:href="#m7a942715fe" x="228.736667" y="180" style="fill: #2a78d6; stroke: #2a78d6"/>
     <use xlink:href="#m7a942715fe" x="233.603333" y="180" style="fill: #2a78d6; stroke: #2a78d6"/>
     <use xlink:href="#m7a942715fe" x="238.47" y="180" style="fill: #2a78d6; stroke: #2a78d6"/>
     <use xlink:href="#m7a942715fe" x="243.336667" y="180" style="fill: #2a78d6; stroke: #2a78d6"/>
     <use xlink:href="#m7a942715fe" x="248.203333" y="180" style="fill: #2a78d6; stroke: #2a78d6"/>
     <use xlink:href="#m7a942715fe" x="253.07" y="180" style="fill: #2a78d6; stroke: #2a78d6"/>
     <use xlink:href="#m7a942715fe" x="257.936667" y="180" style="fill: #2a78d6; stroke: #2a78d6"/>
     <use xlink:href="#m7a942715fe" x="262.803333" y="180" style="fill: #2a78d6; stroke: #2a78d6"/>
     <use xlink:href="#m7a942715fe" x="267.67" y="180" style="fill: #2a78d6; stroke: #2a78d6"/>
     <use xlink:href="#m7a942715fe" x="272.536667" y="180" style="fill: #2a78d6; stroke: #2a78d6"/>
     <use xlink:href="#m7a942715fe" x="277.403333" y="180" style="fill: #2a78d6; stroke: #2a78d6"/>
     <use xlink:href="#m7a942715fe" x="282.27" y="180" style="fill: #2a78d6; stroke: #2a78d6"/>
     <use xlink:href="#m7a942715fe" x="287.136667" y="180" style="fill: #2a78d6; stroke: #2a78d6"/>
     <use xlink:href="#m7a942715fe" x="292.003333" y="180" style="fill: #2a78d6; stroke: #2a78d6"/>
     <use xlink:href="#m7a942715fe" x="296.87" y="180" style="fill: #2a78d6; stroke: #2a78d6"/>
     <use xlink:href="#m7a942715fe" x="301.736667" y="180" style="fill: #2a78d6; stroke: #2a78d6"/>
     <use xlink:href="#m7a942715fe" x="306.603333" y="180" style="fill: #2a78d6; stroke: #2a78d6"/>
     <use xlink:href="#m7a942715fe" x="311.47" y="180" style="fill: #2a78d6; stroke: #2a78d6"/>
     <use xlink:href="#m7a942715fe" x="316.336667" y="180" style="fill: #2a78d6; stroke: #2a78d6"/>
     <use xlink:href="#m7a942715fe" x="321.203333" y="180" style="fill: #2a78d6; stroke: #2a78d6"/>
     <use xlink:href="#m7a942715fe" x="326.07" y="180" style="fill: #2a78d6; stroke: #2a78d6"/>
     <use xlink:href="#m7a942715fe" x="330.936667" y="180" style="fill: #2a78d6; stroke: #2a78d6"/>
     <use xlink:href="#m7a942715fe" x="335.803333" y="180" style="fill: #2a78d6; stroke: #2a78d6"/>
     <use xlink:href="#m7a942715fe" x="340.67" y="180" style="fill: #2a78d6; stroke: #2a78d6"/>
     <use xlink:href="#m7a942715fe" x="345.536667" y="180" style="fill: #2a78d6; stroke: #2a78d6"/>
     <use xlink:href="#m7a942715fe" x="350.403333" y="180" style="fill: #2a78d6; stroke: #2a78d6"/>
     <use xlink:href="#m7a942715fe" x="355.27" y="180" style="fill: #2a78d6; stroke: #2a78d6"/>
     <use xlink:href="#m7a942715fe" x="360.136667" y="180" style="fill: #2a78d6; stroke: #2a78d6"/>
     <use xlink:href="#m7a942715fe" x="365.003333" y="180" style="fill: #2a78d6; stroke: #2a78d6"/>
     <use xlink:href="#m7a942715fe" x="369.87" y="180" style="fill: #2a78d6; stroke: #2a78d6"/>
    </g>
   </g>
   <g id="matplotlib.axis_1">
    <g id="xtick_1">
     <g id="line2d_1">
      <defs>
       <path id="m2b73acb183" d="M 0 0 
L 0 3 
" style="stroke: #7d8996; stroke-width: 0.8"/>
      </defs>
      <g>
       <use xlink:href="#m2b73acb183" x="80.303333" y="187.786667" style="fill: #7d8996; stroke: #7d8996; stroke-width: 0.8"/>
      </g>
     </g>
     <g id="text_1">
      <!-- −100 -->
      <g style="fill: #7d8996" transform="translate(69.316458 200.364792) scale(0.08 -0.08)">
       <defs>
        <path id="DejaVuSans-c9c" d="M 678 2272 
L 4684 2272 
L 4684 1741 
L 678 1741 
L 678 2272 
z
" transform="scale(0.015625)"/>
        <path id="DejaVuSans-14" d="M 794 531 
L 1825 531 
L 1825 4091 
L 703 3866 
L 703 4441 
L 1819 4666 
L 2450 4666 
L 2450 531 
L 3481 531 
L 3481 0 
L 794 0 
L 794 531 
z
" transform="scale(0.015625)"/>
        <path id="DejaVuSans-13" d="M 2034 4250 
Q 1547 4250 1301 3770 
Q 1056 3291 1056 2328 
Q 1056 1369 1301 889 
Q 1547 409 2034 409 
Q 2525 409 2770 889 
Q 3016 1369 3016 2328 
Q 3016 3291 2770 3770 
Q 2525 4250 2034 4250 
z
M 2034 4750 
Q 2819 4750 3233 4129 
Q 3647 3509 3647 2328 
Q 3647 1150 3233 529 
Q 2819 -91 2034 -91 
Q 1250 -91 836 529 
Q 422 1150 422 2328 
Q 422 3509 836 4129 
Q 1250 4750 2034 4750 
z
" transform="scale(0.015625)"/>
       </defs>
       <use xlink:href="#DejaVuSans-c9c"/>
       <use xlink:href="#DejaVuSans-14" transform="translate(83.796875 0)"/>
       <use xlink:href="#DejaVuSans-13" transform="translate(147.421875 0)"/>
       <use xlink:href="#DejaVuSans-13" transform="translate(211.046875 0)"/>
      </g>
     </g>
    </g>
    <g id="xtick_2">
     <g id="line2d_2">
      <g>
       <use xlink:href="#m2b73acb183" x="148.436667" y="187.786667" style="fill: #7d8996; stroke: #7d8996; stroke-width: 0.8"/>
      </g>
     </g>
     <g id="text_2">
      <!-- −50 -->
      <g style="fill: #7d8996" transform="translate(139.994792 200.364792) scale(0.08 -0.08)">
       <defs>
        <path id="DejaVuSans-18" d="M 691 4666 
L 3169 4666 
L 3169 4134 
L 1269 4134 
L 1269 2991 
Q 1406 3038 1543 3061 
Q 1681 3084 1819 3084 
Q 2600 3084 3056 2656 
Q 3513 2228 3513 1497 
Q 3513 744 3044 326 
Q 2575 -91 1722 -91 
Q 1428 -91 1123 -41 
Q 819 9 494 109 
L 494 744 
Q 775 591 1075 516 
Q 1375 441 1709 441 
Q 2250 441 2565 725 
Q 2881 1009 2881 1497 
Q 2881 1984 2565 2268 
Q 2250 2553 1709 2553 
Q 1456 2553 1204 2497 
Q 953 2441 691 2322 
L 691 4666 
z
" transform="scale(0.015625)"/>
       </defs>
       <use xlink:href="#DejaVuSans-c9c"/>
       <use xlink:href="#DejaVuSans-18" transform="translate(83.796875 0)"/>
       <use xlink:href="#DejaVuSans-13" transform="translate(147.421875 0)"/>
      </g>
     </g>
    </g>
    <g id="xtick_3">
     <g id="line2d_3">
      <g>
       <use xlink:href="#m2b73acb183" x="216.57" y="187.786667" style="fill: #7d8996; stroke: #7d8996; stroke-width: 0.8"/>
      </g>
     </g>
     <g id="text_3">
      <!-- 0 -->
      <g style="fill: #7d8996" transform="translate(214.025 200.364792) scale(0.08 -0.08)">
       <use xlink:href="#DejaVuSans-13"/>
      </g>
     </g>
    </g>
    <g id="xtick_4">
     <g id="line2d_4">
      <g>
       <use xlink:href="#m2b73acb183" x="284.703333" y="187.786667" style="fill: #7d8996; stroke: #7d8996; stroke-width: 0.8"/>
      </g>
     </g>
     <g id="text_4">
      <!-- 50 -->
      <g style="fill: #7d8996" transform="translate(279.613333 200.364792) scale(0.08 -0.08)">
       <use xlink:href="#DejaVuSans-18"/>
       <use xlink:href="#DejaVuSans-13" transform="translate(63.625 0)"/>
      </g>
     </g>
    </g>
    <g id="xtick_5">
     <g id="line2d_5">
      <g>
       <use xlink:href="#m2b73acb183" x="352.836667" y="187.786667" style="fill: #7d8996; stroke: #7d8996; stroke-width: 0.8"/>
      </g>
     </g>
     <g id="text_5">
      <!-- 100 -->
      <g style="fill: #7d8996" transform="translate(345.201667 200.364792) scale(0.08 -0.08)">
       <use xlink:href="#DejaVuSans-14"/>
       <use xlink:href="#DejaVuSans-13" transform="translate(63.625 0)"/>
       <use xlink:href="#DejaVuSans-13" transform="translate(127.25 0)"/>
      </g>
     </g>
    </g>
    <g id="text_6">
     <!-- $k_x$ [1/m] -->
     <g style="fill: #7d8996" transform="translate(196.22 213.886667) scale(0.1 -0.1)">
      <defs>
       <path id="DejaVuSans-Oblique-4e" d="M 1172 4863 
L 1747 4863 
L 1197 2028 
L 3169 3500 
L 3916 3500 
L 1716 1825 
L 3322 0 
L 2625 0 
L 1131 1709 
L 800 0 
L 225 0 
L 1172 4863 
z
" transform="scale(0.015625)"/>
       <path id="DejaVuSans-Oblique-5b" d="M 3841 3500 
L 2234 1784 
L 3219 0 
L 2559 0 
L 1819 1388 
L 531 0 
L -166 0 
L 1556 1844 
L 641 3500 
L 1300 3500 
L 1972 2234 
L 3144 3500 
L 3841 3500 
z
" transform="scale(0.015625)"/>
       <path id="DejaVuSans-3" transform="scale(0.015625)"/>
       <path id="DejaVuSans-3e" d="M 550 4863 
L 1875 4863 
L 1875 4416 
L 1125 4416 
L 1125 -397 
L 1875 -397 
L 1875 -844 
L 550 -844 
L 550 4863 
z
" transform="scale(0.015625)"/>
       <path id="DejaVuSans-12" d="M 1625 4666 
L 2156 4666 
L 531 -594 
L 0 -594 
L 1625 4666 
z
" transform="scale(0.015625)"/>
       <path id="DejaVuSans-50" d="M 3328 2828 
Q 3544 3216 3844 3400 
Q 4144 3584 4550 3584 
Q 5097 3584 5394 3201 
Q 5691 2819 5691 2113 
L 5691 0 
L 5113 0 
L 5113 2094 
Q 5113 2597 4934 2840 
Q 4756 3084 4391 3084 
Q 3944 3084 3684 2787 
Q 3425 2491 3425 1978 
L 3425 0 
L 2847 0 
L 2847 2094 
Q 2847 2600 2669 2842 
Q 2491 3084 2119 3084 
Q 1678 3084 1418 2786 
Q 1159 2488 1159 1978 
L 1159 0 
L 581 0 
L 581 3500 
L 1159 3500 
L 1159 2956 
Q 1356 3278 1631 3431 
Q 1906 3584 2284 3584 
Q 2666 3584 2933 3390 
Q 3200 3197 3328 2828 
z
" transform="scale(0.015625)"/>
       <path id="DejaVuSans-40" d="M 1947 4863 
L 1947 -844 
L 622 -844 
L 622 -397 
L 1369 -397 
L 1369 4416 
L 622 4416 
L 622 4863 
L 1947 4863 
z
" transform="scale(0.015625)"/>
      </defs>
      <use xlink:href="#DejaVuSans-Oblique-4e" transform="translate(0 0.015625)"/>
      <use xlink:href="#DejaVuSans-Oblique-5b" transform="translate(57.910156 -14.984326) scale(0.7)"/>
      <use xlink:href="#DejaVuSans-3" transform="translate(102.070312 0.015625)"/>
      <use xlink:href="#DejaVuSans-3e" transform="translate(133.857422 0.015625)"/>
      <use xlink:href="#DejaVuSans-14" transform="translate(172.871094 0.015625)"/>
      <use xlink:href="#DejaVuSans-12" transform="translate(236.494141 0.015625)"/>
      <use xlink:href="#DejaVuSans-50" transform="translate(270.185547 0.015625)"/>
      <use xlink:href="#DejaVuSans-40" transform="translate(367.597656 0.015625)"/>
     </g>
    </g>
   </g>
   <g id="matplotlib.axis_2">
    <g id="ytick_1">
     <g id="line2d_6">
      <defs>
       <path id="mfb5edc06b3" d="M 0 0 
L -3 0 
" style="stroke: #7d8996; stroke-width: 0.8"/>
      </defs>
      <g>
       <use xlink:href="#mfb5edc06b3" x="47.94" y="185.84" style="fill: #7d8996; stroke: #7d8996; stroke-width: 0.8"/>
      </g>
     </g>
     <g id="text_7">
      <!-- 110 -->
      <g style="fill: #7d8996" transform="translate(26.17 188.879062) scale(0.08 -0.08)">
       <use xlink:href="#DejaVuSans-14"/>
       <use xlink:href="#DejaVuSans-14" transform="translate(63.625 0)"/>
       <use xlink:href="#DejaVuSans-13" transform="translate(127.25 0)"/>
      </g>
     </g>
    </g>
    <g id="ytick_2">
     <g id="line2d_7">
      <g>
       <use xlink:href="#mfb5edc06b3" x="47.94" y="172.213333" style="fill: #7d8996; stroke: #7d8996; stroke-width: 0.8"/>
      </g>
     </g>
     <g id="text_8">
      <!-- 120 -->
      <g style="fill: #7d8996" transform="translate(26.17 175.252396) scale(0.08 -0.08)">
       <defs>
        <path id="DejaVuSans-15" d="M 1228 531 
L 3431 531 
L 3431 0 
L 469 0 
L 469 531 
Q 828 903 1448 1529 
Q 2069 2156 2228 2338 
Q 2531 2678 2651 2914 
Q 2772 3150 2772 3378 
Q 2772 3750 2511 3984 
Q 2250 4219 1831 4219 
Q 1534 4219 1204 4116 
Q 875 4013 500 3803 
L 500 4441 
Q 881 4594 1212 4672 
Q 1544 4750 1819 4750 
Q 2544 4750 2975 4387 
Q 3406 4025 3406 3419 
Q 3406 3131 3298 2873 
Q 3191 2616 2906 2266 
Q 2828 2175 2409 1742 
Q 1991 1309 1228 531 
z
" transform="scale(0.015625)"/>
       </defs>
       <use xlink:href="#DejaVuSans-14"/>
       <use xlink:href="#DejaVuSans-15" transform="translate(63.625 0)"/>
       <use xlink:href="#DejaVuSans-13" transform="translate(127.25 0)"/>
      </g>
     </g>
    </g>
    <g id="text_9">
     <!-- $k_y$ [1/m] -->
     <g style="fill: #7d8996" transform="translate(19.17 200.35) rotate(-90) scale(0.1 -0.1)">
      <defs>
       <path id="DejaVuSans-Oblique-5c" d="M 1588 -325 
Q 1188 -997 936 -1164 
Q 684 -1331 294 -1331 
L -159 -1331 
L -63 -850 
L 269 -850 
Q 509 -850 678 -719 
Q 847 -588 1056 -206 
L 1234 128 
L 459 3500 
L 1069 3500 
L 1650 819 
L 3256 3500 
L 3859 3500 
L 1588 -325 
z
" transform="scale(0.015625)"/>
      </defs>
      <use xlink:href="#DejaVuSans-Oblique-4e" transform="translate(0 0.015625)"/>
      <use xlink:href="#DejaVuSans-Oblique-5c" transform="translate(57.910156 -14.984326) scale(0.7)"/>
      <use xlink:href="#DejaVuSans-3" transform="translate(102.070312 0.015625)"/>
      <use xlink:href="#DejaVuSans-3e" transform="translate(133.857422 0.015625)"/>
      <use xlink:href="#DejaVuSans-14" transform="translate(172.871094 0.015625)"/>
      <use xlink:href="#DejaVuSans-12" transform="translate(236.494141 0.015625)"/>
      <use xlink:href="#DejaVuSans-50" transform="translate(270.185547 0.015625)"/>
      <use xlink:href="#DejaVuSans-40" transform="translate(367.597656 0.015625)"/>
     </g>
    </g>
   </g>
   <g id="line2d_8">
    <path d="M 216.57 335.733333 
M 216.57 335.733333 
L 216.57 274.259649 
L 214.901429 266.063158 
L 209.895714 257.866667 
L 201.552857 249.670175 
L 189.872857 241.473684 
L 174.855714 233.277193 
L 156.501429 225.080702 
L 113.214167 208.687719 
L 95.146667 201.076692 
L 80.6075 194.636591 
L 69.596667 189.367419 
L 62.114167 185.269173 
L 58.16 182.341855 
L 57.734167 180.585464 
L 60.836667 180 
L 372.303333 180 
L 375.405833 180.585464 
L 374.98 182.341855 
L 371.025833 185.269173 
L 363.543333 189.367419 
L 352.5325 194.636591 
L 337.993333 201.076692 
L 319.925833 208.687719 
L 276.638571 225.080702 
L 258.284286 233.277193 
L 243.267143 241.473684 
L 231.587143 249.670175 
L 223.244286 257.866667 
L 218.238571 266.063158 
L 216.57 274.259649 
L 216.57 335.733333 
L 216.57 335.733333 
" clip-path="url(#p672cb59062)" style="fill: none; stroke: #7d8996; stroke-width: 0.4; stroke-linecap: square"/>
   </g>
   <g id="patch_3">
    <path d="M 47.94 187.786667 
L 47.94 172.213333 
" style="fill: none; stroke: #7d8996; stroke-opacity: 0.34902; stroke-width: 0.8; stroke-linejoin: miter; stroke-linecap: square"/>
   </g>
   <g id="patch_4">
    <path d="M 47.94 187.786667 
L 385.2 187.786667 
" style="fill: none; stroke: #7d8996; stroke-opacity: 0.34902; stroke-width: 0.8; stroke-linejoin: miter; stroke-linecap: square"/>
   </g>
  </g>
 </g>
 <defs>
  <clipPath id="p672cb59062">
   <rect x="47.94" y="172.213333" width="337.26" height="15.573333"/>
  </clipPath>
 </defs>
</svg>
